<svg width="87" height="35" viewBox="0 0 87 35" fill="none" xmlns="http://www.w3.org/2000/svg">
<path d="M82.5733 14.44H85.6733C85.46 15.8933 84.82 17.06 83.7533 17.94C82.7 18.82 81.3533 19.26 79.7133 19.26C77.5666 19.26 75.8866 18.5867 74.6733 17.24C73.4733 15.88 72.8733 14.0867 72.8733 11.86C72.8733 9.63333 73.48 7.84667 74.6933 6.5C75.9066 5.14 77.58 4.46 79.7133 4.46C81.2733 4.46 82.5733 4.86667 83.6133 5.68C84.6533 6.48 85.2933 7.54667 85.5333 8.88H82.4133C82.08 7.70667 81.18 7.12 79.7133 7.12C78.4866 7.12 77.5466 7.56667 76.8933 8.46C76.2533 9.34 75.9333 10.4733 75.9333 11.86C75.9333 13.2467 76.2533 14.3867 76.8933 15.28C77.5466 16.16 78.4866 16.6 79.7133 16.6C80.4733 16.6 81.1 16.4133 81.5933 16.04C82.1 15.6533 82.4266 15.12 82.5733 14.44Z" fill="white"/>
<path d="M58.8995 14.4605C58.8431 14.1169 58.6777 13.8005 58.4275 13.5582C58.1774 13.3159 57.8559 13.1606 57.5106 13.1153L29.523 9.47323C29.2165 9.35099 28.88 9.32538 28.5585 9.39985C28.232 9.44042 27.9247 9.57967 27.6787 9.79843L2.62813 22.7912C1.21791 23.5222 1.59033 25.6343 3.16551 25.8388L31.151 29.4799C31.4579 29.6025 31.7954 29.6274 32.1167 29.5531C32.4432 29.5127 32.7497 29.3737 32.9953 29.1547L58.0478 16.1622C58.3512 16.0048 58.597 15.7553 58.75 15.4497C58.9029 15.144 58.9553 14.7978 58.8995 14.4605ZM28.9681 12.7841L29.6625 16.7221C28.216 17.0766 27.268 18.4845 27.5303 19.9721C27.7926 21.4598 29.165 22.4585 30.6455 22.2969L31.3685 26.3974L8.70908 23.2908L28.9681 12.7841Z" fill="white"/>
</svg>
