<svg width="1375" height="859" viewBox="0 0 1375 859" fill="none" xmlns="http://www.w3.org/2000/svg">
<rect x="1121.71" y="460.876" width="102.599" height="83.7371" transform="rotate(8.7464 1121.71 460.876)" stroke="black" stroke-width="2"/>
<path d="M744.902 176.101L744.014 173.473H740.258L739.37 176.101H738.266L741.23 167.533H743.054L746.03 176.101H744.902ZM741.89 168.637L740.582 172.489H743.678L742.37 168.637H741.89ZM750.705 170.053V171.013H750.201C749.593 171.013 749.117 171.193 748.773 171.553C748.437 171.913 748.269 172.421 748.269 173.077V176.101H747.249V170.053H748.233V170.773H748.497C748.881 170.293 749.465 170.053 750.249 170.053H750.705ZM757.286 172.717V173.065H752.678C752.694 173.793 752.866 174.361 753.194 174.769C753.522 175.169 753.994 175.369 754.61 175.369C755.442 175.369 755.954 175.057 756.146 174.433H757.178C757.074 174.977 756.798 175.417 756.35 175.753C755.91 176.089 755.33 176.257 754.61 176.257C753.69 176.257 752.97 175.957 752.45 175.357C751.93 174.757 751.67 173.977 751.67 173.017C751.67 172.073 751.93 171.317 752.45 170.749C752.97 170.181 753.682 169.897 754.586 169.897C755.442 169.897 756.102 170.169 756.566 170.713C757.03 171.249 757.27 171.917 757.286 172.717ZM754.562 170.785C754.042 170.785 753.626 170.921 753.314 171.193C753.002 171.457 752.81 171.797 752.738 172.213H756.23C756.198 171.805 756.034 171.465 755.738 171.193C755.442 170.921 755.05 170.785 754.562 170.785ZM764.25 176.101H763.23V172.477C763.23 171.365 762.718 170.809 761.694 170.809C761.166 170.809 760.734 171.009 760.398 171.409C760.062 171.801 759.894 172.273 759.894 172.825V176.101H758.874V170.053H759.858V170.701H760.122C760.298 170.461 760.546 170.269 760.866 170.125C761.186 169.973 761.546 169.897 761.946 169.897C762.682 169.897 763.25 170.109 763.65 170.533C764.05 170.949 764.25 171.525 764.25 172.261V176.101ZM769.968 176.101V175.465H769.704C769.288 175.993 768.66 176.257 767.82 176.257C767.156 176.257 766.628 176.065 766.236 175.681C765.844 175.297 765.648 174.833 765.648 174.289C765.648 173.737 765.84 173.265 766.224 172.873C766.608 172.481 767.188 172.285 767.964 172.285H769.932V172.045C769.932 171.661 769.812 171.357 769.572 171.133C769.332 170.901 768.96 170.785 768.456 170.785C767.576 170.785 767.108 171.077 767.052 171.661H766.032C766.072 171.109 766.308 170.677 766.74 170.365C767.18 170.053 767.744 169.897 768.432 169.897C769.208 169.897 769.816 170.077 770.256 170.437C770.704 170.797 770.928 171.313 770.928 171.985V176.101H769.968ZM768.072 175.369C768.576 175.369 769.012 175.205 769.38 174.877C769.748 174.541 769.932 174.133 769.932 173.653V173.101H768.12C767.152 173.101 766.668 173.485 766.668 174.253C766.668 174.597 766.788 174.869 767.028 175.069C767.276 175.269 767.624 175.369 768.072 175.369Z" fill="black"/>
<path d="M751.949 149.573H758.122C761.037 149.573 761.329 150.936 761.526 152.599L762.298 159.03C762.546 161.139 761.895 162.862 758.894 162.862H751.186C748.177 162.862 747.525 161.139 747.783 159.03L748.554 152.599C748.743 150.936 749.034 149.573 751.949 149.573Z" stroke="black" stroke-linecap="round" stroke-linejoin="round"/>
<path d="M751.606 150.859V147.858C751.606 146.572 752.464 145.715 753.75 145.715H756.322C757.608 145.715 758.465 146.572 758.465 147.858V150.859" stroke="black" stroke-linecap="round" stroke-linejoin="round"/>
<path d="M762.246 158.601H751.606" stroke="black" stroke-linecap="round" stroke-linejoin="round"/>
<path d="M1149.04 526.066V517.498H1150.84L1153 521.518H1153.27L1155.39 517.498H1157.2V526.066H1156.15V518.722H1155.88L1153.69 522.79H1152.56L1150.36 518.722H1150.1V526.066H1149.04ZM1164.53 522.682V523.03H1159.92C1159.93 523.758 1160.11 524.326 1160.43 524.734C1160.76 525.134 1161.23 525.334 1161.85 525.334C1162.68 525.334 1163.19 525.022 1163.39 524.398H1164.42C1164.31 524.942 1164.04 525.382 1163.59 525.718C1163.15 526.054 1162.57 526.222 1161.85 526.222C1160.93 526.222 1160.21 525.922 1159.69 525.322C1159.17 524.722 1158.91 523.942 1158.91 522.982C1158.91 522.038 1159.17 521.282 1159.69 520.714C1160.21 520.146 1160.92 519.862 1161.83 519.862C1162.68 519.862 1163.34 520.134 1163.81 520.678C1164.27 521.214 1164.51 521.882 1164.53 522.682ZM1161.8 520.75C1161.28 520.75 1160.87 520.886 1160.55 521.158C1160.24 521.422 1160.05 521.762 1159.98 522.178H1163.47C1163.44 521.77 1163.27 521.43 1162.98 521.158C1162.68 520.886 1162.29 520.75 1161.8 520.75ZM1167.52 520.018H1169.04V520.906H1167.52V524.23C1167.52 524.55 1167.6 524.786 1167.76 524.938C1167.93 525.082 1168.21 525.154 1168.6 525.154H1169.04V526.066H1168.57C1167.89 526.066 1167.37 525.938 1167.01 525.682C1166.67 525.426 1166.5 524.99 1166.5 524.374V520.906H1165.45V520.018H1166.5V518.194H1167.52V520.018ZM1174.18 520.018V520.978H1173.67C1173.06 520.978 1172.59 521.158 1172.24 521.518C1171.91 521.878 1171.74 522.386 1171.74 523.042V526.066H1170.72V520.018H1171.7V520.738H1171.97C1172.35 520.258 1172.94 520.018 1173.72 520.018H1174.18ZM1175.93 520.762C1176.47 520.162 1177.2 519.862 1178.12 519.862C1179.04 519.862 1179.76 520.162 1180.29 520.762C1180.83 521.362 1181.09 522.122 1181.09 523.042C1181.09 523.962 1180.83 524.722 1180.29 525.322C1179.76 525.922 1179.04 526.222 1178.12 526.222C1177.2 526.222 1176.47 525.922 1175.93 525.322C1175.41 524.722 1175.14 523.962 1175.14 523.042C1175.14 522.122 1175.41 521.362 1175.93 520.762ZM1176.67 524.674C1177 525.114 1177.49 525.334 1178.12 525.334C1178.75 525.334 1179.23 525.114 1179.57 524.674C1179.91 524.226 1180.07 523.682 1180.07 523.042C1180.07 522.402 1179.91 521.862 1179.57 521.422C1179.23 520.974 1178.75 520.75 1178.12 520.75C1177.49 520.75 1177 520.974 1176.67 521.422C1176.33 521.862 1176.16 522.402 1176.16 523.042C1176.16 523.682 1176.33 524.226 1176.67 524.674Z" fill="black"/>
<path d="M1162.12 498.657H1168.3C1171.21 498.657 1171.5 500.02 1171.7 501.683L1172.47 508.114C1172.72 510.223 1172.07 511.946 1169.07 511.946H1161.36C1158.35 511.946 1157.7 510.223 1157.96 508.114L1158.73 501.683C1158.92 500.02 1159.21 498.657 1162.12 498.657Z" stroke="black" stroke-linecap="round" stroke-linejoin="round"/>
<path d="M1161.78 499.943V496.942C1161.78 495.656 1162.64 494.799 1163.92 494.799H1166.5C1167.78 494.799 1168.64 495.656 1168.64 496.942V499.943" stroke="black" stroke-linecap="round" stroke-linejoin="round"/>
<path d="M1172.42 507.685H1161.78" stroke="black" stroke-linecap="round" stroke-linejoin="round"/>
<path d="M746.431 420.003C746.431 435.707 734.971 448.438 712.635 448.438C688.971 448.438 678.839 435.707 678.839 420.003C678.839 404.298 692.385 391.567 712.635 391.567C731.3 391.567 746.431 404.298 746.431 420.003Z" fill="black"/>
<path d="M703.691 426.801H710.907V423.783H712.766C716.439 423.783 718.24 421.612 718.24 418.047C718.24 414.507 716.376 412.381 712.766 412.381H703.691V426.801Z" stroke="white" stroke-miterlimit="22.93"/>
<path d="M678.801 426.802H686.015V418.935H690.957V412.383H678.801V426.802Z" stroke="white" stroke-miterlimit="22.93"/>
<path d="M733.349 412.387H744.313V420.249H747.128L746.142 426.801H729.435V420.249H732.167L733.349 412.387Z" stroke="white" stroke-miterlimit="22.93"/>
<path d="M697.354 427.253C701.852 427.253 705.499 423.823 705.499 419.592C705.499 415.361 701.852 411.931 697.354 411.931C692.855 411.931 689.208 415.361 689.208 419.592C689.208 423.823 692.855 427.253 697.354 427.253Z" stroke="white" stroke-miterlimit="22.93"/>
<path d="M724.021 427.253C728.52 427.253 732.167 423.823 732.167 419.592C732.167 415.361 728.52 411.931 724.021 411.931C719.522 411.931 715.875 415.361 715.875 419.592C715.875 423.823 719.522 427.253 724.021 427.253Z" stroke="white" stroke-miterlimit="22.93"/>
<path d="M582.351 438.55L581.673 437.555L585.351 436.811L588.943 430.721L589.66 431.773L587.033 436.172L587.23 436.462L592.175 435.464L592.877 436.494L582.351 438.55ZM587.17 440.649L588.095 440.018L588.229 440.215C588.508 440.624 588.897 440.788 589.396 440.708C589.902 440.623 590.657 440.238 591.659 439.555L593.915 438.018L596.958 442.484L591.127 446.457L590.449 445.462L595.424 442.072L593.682 439.515L592.259 440.485C590.94 441.384 589.908 441.85 589.163 441.883C588.423 441.924 587.803 441.579 587.304 440.846L587.17 440.649ZM593.196 449.493L592.376 448.29L593.718 447.375L594.538 448.578L593.196 449.493ZM604.836 456.929L604.582 457.102C604.656 457.56 604.591 458.011 604.386 458.456C604.186 458.908 603.878 459.276 603.461 459.56C602.767 460.033 602.041 460.178 601.283 459.994C600.533 459.805 599.848 459.255 599.228 458.345L596.713 454.654L604.974 449.025L607.426 452.623C607.998 453.464 608.239 454.249 608.148 454.977C608.07 455.708 607.731 456.278 607.129 456.688C606.335 457.229 605.57 457.31 604.836 456.929ZM604.758 450.697L602.178 452.455L603.904 454.989C604.635 456.061 605.44 456.297 606.319 455.698C606.751 455.404 606.962 455.034 606.952 454.589C606.95 454.139 606.789 453.678 606.468 453.208L604.758 450.697ZM598.348 455.065L600.106 457.645C600.469 458.177 600.878 458.536 601.333 458.723C601.795 458.905 602.293 458.815 602.825 458.452C603.326 458.11 603.573 457.694 603.566 457.202C603.571 456.713 603.392 456.202 603.03 455.67L601.264 453.078L598.348 455.065ZM601.721 462.003L602.646 461.372L602.78 461.569C603.059 461.977 603.448 462.142 603.946 462.062C604.453 461.976 605.207 461.592 606.21 460.909L608.466 459.371L611.509 463.837L605.678 467.81L605 466.815L609.975 463.426L608.233 460.869L606.81 461.838C605.491 462.737 604.459 463.203 603.714 463.237C602.974 463.278 602.354 462.932 601.855 462.199L601.721 462.003ZM609.497 473.415L610.11 472.997L609.937 472.742C609.154 472.688 608.487 472.256 607.936 471.446C607.499 470.806 607.338 470.171 607.45 469.541C607.563 468.91 607.881 468.417 608.406 468.059C608.938 467.697 609.519 467.572 610.15 467.684C610.78 467.797 611.35 468.227 611.86 468.976L613.152 470.873L613.384 470.715C613.754 470.463 613.968 470.148 614.027 469.769C614.093 469.385 613.96 468.95 613.629 468.464C613.051 467.616 612.462 467.357 611.862 467.686L611.192 466.703C611.75 466.379 612.322 466.323 612.907 466.534C613.496 466.753 614.017 467.195 614.469 467.858C614.979 468.606 615.205 469.31 615.147 469.971C615.094 470.64 614.744 471.195 614.096 471.636L610.128 474.34L609.497 473.415ZM608.957 471.106C609.288 471.592 609.733 471.904 610.291 472.044C610.857 472.178 611.371 472.087 611.834 471.772L612.366 471.409L611.175 469.662C610.539 468.729 609.851 468.514 609.111 469.019C608.779 469.245 608.596 469.539 608.561 469.902C608.531 470.273 608.663 470.674 608.957 471.106ZM615.802 478.888L616.472 479.871C615.807 480.155 615.154 480.199 614.512 480.004C613.884 479.811 613.343 479.382 612.891 478.719C612.292 477.84 612.105 476.951 612.329 476.053C612.565 475.158 613.131 474.405 614.026 473.795C614.928 473.181 615.836 472.929 616.748 473.042C617.66 473.154 618.419 473.654 619.023 474.541C619.48 475.212 619.681 475.871 619.626 476.519C619.583 477.169 619.318 477.734 618.831 478.212L618.161 477.229C618.675 476.574 618.677 475.872 618.167 475.124C617.741 474.499 617.215 474.175 616.588 474.15C615.975 474.128 615.352 474.332 614.719 474.763C614.079 475.199 613.652 475.716 613.438 476.314C613.224 476.911 613.327 477.519 613.748 478.136C614.305 478.953 614.989 479.204 615.802 478.888ZM616.658 483.924L615.712 482.536L621.543 478.562L622.198 479.522L617.686 482.597L617.859 482.852L624.113 482.334L625.091 483.768L619.26 487.742L618.606 486.781L623.118 483.707L622.944 483.452L616.658 483.924ZM623.212 493.541L624.667 490.431L624.384 490.015L620.933 490.197L620.2 489.121L624.423 488.904L626.157 485.333L626.867 486.374L625.467 489.293L625.751 489.71L628.995 489.498L629.697 490.528L625.758 490.789L623.968 494.652L623.212 493.541ZM625.851 497.414L624.905 496.026L630.736 492.052L631.39 493.012L626.878 496.087L627.051 496.342L633.306 495.824L634.283 497.258L628.452 501.232L627.798 500.271L632.31 497.197L632.137 496.942L625.851 497.414ZM633.287 508.327L632.617 507.343L635.185 505.593L632.986 502.365L630.417 504.115L629.747 503.132L635.578 499.159L636.248 500.142L633.842 501.782L636.041 505.01L638.448 503.37L639.118 504.353L633.287 508.327ZM639.029 512.974L639.699 513.958C639.034 514.241 638.381 514.285 637.739 514.09C637.111 513.897 636.571 513.469 636.119 512.806C635.52 511.926 635.332 511.038 635.556 510.14C635.793 509.244 636.359 508.492 637.253 507.882C638.156 507.267 639.063 507.016 639.975 507.128C640.888 507.241 641.646 507.74 642.251 508.627C642.708 509.298 642.909 509.958 642.853 510.605C642.811 511.256 642.546 511.82 642.059 512.299L641.389 511.315C641.902 510.66 641.904 509.959 641.394 509.211C640.969 508.586 640.443 508.261 639.816 508.237C639.202 508.214 638.579 508.419 637.946 508.85C637.306 509.286 636.879 509.803 636.665 510.4C636.451 510.998 636.555 511.605 636.975 512.222C637.532 513.04 638.217 513.29 639.029 512.974ZM641.683 520.648L643.369 517.602L642.178 515.855L639.61 517.605L638.94 516.622L644.771 512.649L645.441 513.632L643.034 515.272L644.241 517.042L647.475 516.617L648.176 517.647L644.395 518.139L642.401 521.701L641.683 520.648ZM645.882 526.81L646.495 526.392L646.321 526.137C645.539 526.083 644.872 525.651 644.32 524.841C643.884 524.201 643.722 523.566 643.835 522.936C643.948 522.305 644.266 521.812 644.791 521.454C645.323 521.092 645.904 520.967 646.534 521.079C647.164 521.192 647.734 521.622 648.244 522.371L649.537 524.268L649.769 524.11C650.139 523.858 650.353 523.543 650.411 523.164C650.477 522.78 650.345 522.345 650.014 521.859C649.435 521.011 648.847 520.752 648.247 521.081L647.577 520.098C648.135 519.774 648.707 519.718 649.291 519.929C649.881 520.148 650.402 520.59 650.854 521.253C651.364 522.001 651.59 522.706 651.532 523.366C651.479 524.035 651.129 524.59 650.481 525.031L646.512 527.735L645.882 526.81ZM645.342 524.501C645.673 524.987 646.118 525.299 646.676 525.439C647.241 525.573 647.755 525.482 648.218 525.167L648.75 524.804L647.56 523.057C646.924 522.124 646.236 521.909 645.495 522.414C645.164 522.64 644.98 522.934 644.945 523.297C644.915 523.668 645.048 524.069 645.342 524.501ZM654.855 527.448L656.834 530.352L651.003 534.326L650.325 533.331L652.628 531.762L651.421 529.992C651.316 529.837 651.239 529.715 651.189 529.625L648.276 530.323L647.574 529.293L650.778 528.55C650.653 527.754 650.957 527.106 651.69 526.607C652.253 526.223 652.807 526.1 653.352 526.236C653.902 526.381 654.403 526.785 654.855 527.448ZM655.323 529.925L654.093 528.12C653.804 527.696 653.518 527.45 653.236 527.383C652.953 527.316 652.657 527.388 652.348 527.598C652.048 527.803 651.881 528.047 651.847 528.329C651.814 528.612 651.942 528.965 652.231 529.389L653.461 531.194L655.323 529.925Z" fill="black"/>
<path d="M174.502 506.722L174.373 507.919L171.092 506.098L164.406 508.4L164.544 507.133L169.397 505.491L169.435 505.144L165.026 502.693L165.16 501.455L174.502 506.722ZM172.199 501.997L171.086 501.876L171.111 501.64C171.165 501.148 170.976 500.771 170.544 500.508C170.103 500.244 169.28 500.047 168.074 499.916L165.36 499.621L165.943 494.248L172.958 495.01L172.828 496.207L166.843 495.557L166.509 498.633L168.221 498.819C169.808 498.991 170.895 499.307 171.484 499.765C172.073 500.214 172.32 500.879 172.225 501.76L172.199 501.997ZM173.354 491.358L173.197 492.806L171.583 492.63L171.74 491.183L173.354 491.358ZM164.752 477.985L165.865 478.106L165.511 481.362L174.336 482.321L174.2 483.573L165.375 482.615L165.019 485.9L163.905 485.779L164.752 477.985ZM168.954 474.427C168.875 475.16 169.07 475.739 169.54 476.166C170.011 476.583 170.622 476.833 171.374 476.914C172.125 476.996 172.776 476.884 173.326 476.577C173.876 476.261 174.191 475.737 174.271 475.004C174.346 474.317 174.162 473.762 173.72 473.339C173.269 472.905 172.645 472.645 171.847 472.558C171.049 472.471 170.388 472.592 169.864 472.92C169.332 473.238 169.029 473.74 168.954 474.427ZM167.739 477.703L167.863 476.561L168.615 476.643L168.648 476.337C168.081 475.768 167.849 475.006 167.953 474.05C168.056 473.104 168.485 472.395 169.24 471.923C169.997 471.442 170.908 471.259 171.975 471.375C173.061 471.493 173.917 471.867 174.543 472.499C175.17 473.121 175.432 473.905 175.33 474.851C175.225 475.816 174.836 476.497 174.164 476.894L174.131 477.2L177.666 477.584L177.538 478.767L167.739 477.703ZM176.169 465.434L175.431 465.354L175.398 465.66C175.958 466.209 176.185 466.97 176.08 467.945C175.996 468.715 175.707 469.303 175.212 469.709C174.717 470.116 174.154 470.285 173.523 470.216C172.883 470.146 172.36 469.864 171.954 469.37C171.547 468.875 171.393 468.177 171.491 467.277L171.739 464.995L171.46 464.965C171.015 464.916 170.647 465.017 170.357 465.267C170.058 465.516 169.876 465.933 169.813 466.518C169.702 467.539 169.982 468.118 170.652 468.257L170.524 469.44C169.889 469.324 169.417 468.996 169.11 468.455C168.803 467.906 168.693 467.232 168.78 466.434C168.878 465.534 169.163 464.851 169.636 464.386C170.11 463.912 170.737 463.717 171.516 463.802L176.29 464.32L176.169 465.434ZM175.081 467.541C175.145 466.956 175.01 466.43 174.675 465.962C174.332 465.492 173.882 465.228 173.325 465.167L172.685 465.098L172.457 467.199C172.335 468.322 172.719 468.932 173.61 469.028C174.009 469.072 174.34 468.967 174.602 468.714C174.865 468.451 175.025 468.06 175.081 467.541ZM177.051 457.31L173.792 458.534L173.564 460.635L176.654 460.971L176.525 462.154L169.51 461.392L169.639 460.209L172.534 460.524L172.765 458.394L170.029 456.618L170.163 455.38L173.36 457.459L177.189 456.044L177.051 457.31ZM171.308 454.44L170.278 454.328L170.933 448.287L171.963 448.399L171.7 450.821L177.685 451.471L177.557 452.654L171.572 452.004L171.308 454.44ZM172.007 446.442C171.379 445.745 171.122 444.862 171.238 443.795C171.354 442.728 171.793 441.926 172.556 441.39C173.319 440.843 174.234 440.628 175.301 440.744C176.368 440.86 177.216 441.267 177.844 441.964C178.474 442.652 178.731 443.529 178.615 444.596C178.499 445.663 178.059 446.47 177.296 447.016C176.533 447.553 175.619 447.763 174.552 447.648C173.485 447.532 172.636 447.13 172.007 446.442ZM176.636 446.086C177.189 445.751 177.505 445.218 177.585 444.485C177.664 443.751 177.47 443.162 177.002 442.717C176.525 442.271 175.915 442.008 175.173 441.927C174.43 441.847 173.783 441.973 173.23 442.308C172.668 442.641 172.348 443.174 172.268 443.907C172.188 444.64 172.387 445.23 172.865 445.676C173.333 446.121 173.938 446.384 174.68 446.465C175.422 446.545 176.075 446.419 176.636 446.086ZM175.676 433.918L175.983 433.951C176.103 433.617 176.319 433.363 176.628 433.19C176.939 433.008 177.313 432.941 177.749 432.988C179.029 433.127 179.58 434.022 179.401 435.674L179.009 439.279L171.994 438.517L172.372 435.037C172.449 434.332 172.665 433.807 173.022 433.46C173.371 433.104 173.823 432.956 174.38 433.016C174.705 433.052 174.98 433.157 175.205 433.331C175.431 433.497 175.588 433.692 175.676 433.918ZM178.134 438.001L178.391 435.635C178.49 434.725 178.191 434.233 177.495 434.157C176.79 434.081 176.388 434.497 176.289 435.406L176.032 437.773L178.134 438.001ZM173.123 437.457L175.03 437.664L175.269 435.465C175.312 435.066 175.255 434.768 175.098 434.573C174.942 434.368 174.725 434.251 174.446 434.221C173.806 434.151 173.445 434.497 173.362 435.258L173.123 437.457ZM180.355 426.887L179.617 426.807L179.584 427.113C180.144 427.662 180.371 428.424 180.265 429.398C180.181 430.168 179.892 430.756 179.398 431.162C178.903 431.569 178.34 431.738 177.709 431.669C177.069 431.6 176.545 431.317 176.139 430.823C175.733 430.328 175.579 429.631 175.676 428.731L175.924 426.448L175.646 426.418C175.2 426.369 174.833 426.47 174.543 426.72C174.243 426.97 174.062 427.386 173.998 427.971C173.888 428.992 174.167 429.571 174.838 429.71L174.709 430.893C174.074 430.777 173.603 430.449 173.295 429.908C172.989 429.359 172.879 428.685 172.965 427.887C173.063 426.987 173.349 426.304 173.822 425.839C174.295 425.365 174.922 425.17 175.702 425.255L180.476 425.773L180.355 426.887ZM179.267 428.994C179.33 428.409 179.195 427.883 178.861 427.415C178.518 426.945 178.068 426.681 177.511 426.62L176.871 426.551L176.642 428.652C176.52 429.775 176.905 430.385 177.796 430.482C178.195 430.525 178.525 430.42 178.787 430.167C179.051 429.904 179.21 429.513 179.267 428.994ZM173.942 420.577L174.322 417.083L181.336 417.845L181.206 419.042L178.437 418.741L178.206 420.871C178.185 421.056 178.165 421.2 178.145 421.301L180.814 422.661L180.679 423.899L177.759 422.385C177.337 423.072 176.686 423.367 175.804 423.272C175.127 423.198 174.625 422.932 174.3 422.474C173.975 422.007 173.856 421.375 173.942 420.577ZM175.194 418.389L174.958 420.56C174.903 421.071 174.961 421.443 175.132 421.678C175.304 421.912 175.576 422.05 175.947 422.09C176.309 422.129 176.594 422.052 176.803 421.859C177.011 421.666 177.143 421.314 177.199 420.804L177.435 418.632L175.194 418.389Z" fill="black"/>
<path d="M990.263 377.714L998.186 378.873L996.739 388.764L995.492 388.582L996.773 379.827L991.343 379.032L990.062 387.787L988.815 387.604L990.263 377.714ZM1003.58 389.765L1003.69 389.031L1003.38 388.987C1002.81 389.526 1002.04 389.724 1001.07 389.583C1000.31 389.47 999.731 389.159 999.343 388.65C998.956 388.14 998.808 387.572 998.9 386.944C998.993 386.307 999.294 385.794 999.804 385.406C1000.31 385.019 1001.02 384.891 1001.91 385.022L1004.18 385.354L1004.22 385.077C1004.29 384.634 1004.2 384.263 1003.96 383.964C1003.72 383.655 1003.32 383.458 1002.73 383.373C1001.72 383.225 1001.13 383.483 1000.96 384.147L999.787 383.975C999.927 383.344 1000.27 382.886 1000.82 382.598C1001.38 382.313 1002.06 382.228 1002.86 382.344C1003.75 382.475 1004.42 382.786 1004.87 383.276C1005.33 383.767 1005.5 384.4 1005.38 385.176L1004.69 389.928L1003.58 389.765ZM1001.52 388.6C1002.1 388.685 1002.63 388.569 1003.11 388.253C1003.59 387.927 1003.87 387.487 1003.95 386.933L1004.05 386.296L1001.95 385.99C1000.84 385.826 1000.21 386.188 1000.08 387.075C1000.03 387.472 1000.12 387.806 1000.36 388.077C1000.61 388.35 1001 388.524 1001.52 388.6ZM1012.33 387.112L1012.28 387.417C1012.61 387.55 1012.86 387.774 1013.02 388.09C1013.19 388.408 1013.24 388.783 1013.18 389.217C1012.99 390.492 1012.08 391.009 1010.43 390.768L1006.84 390.243L1007.87 383.261L1011.33 383.768C1012.03 383.871 1012.55 384.107 1012.88 384.476C1013.22 384.838 1013.36 385.296 1013.27 385.85C1013.23 386.173 1013.11 386.444 1012.93 386.662C1012.76 386.882 1012.55 387.032 1012.33 387.112ZM1008.15 389.416L1010.51 389.761C1011.41 389.893 1011.92 389.613 1012.02 388.92C1012.12 388.219 1011.72 387.801 1010.82 387.669L1008.46 387.324L1008.15 389.416ZM1008.88 384.429L1008.61 386.327L1010.8 386.647C1011.19 386.705 1011.49 386.66 1011.69 386.51C1011.9 386.361 1012.03 386.149 1012.07 385.872C1012.16 385.234 1011.83 384.86 1011.07 384.749L1008.88 384.429ZM1013.94 391.282L1014.1 390.174L1014.34 390.208C1014.83 390.28 1015.21 390.105 1015.49 389.683C1015.77 389.253 1016 388.437 1016.18 387.237L1016.57 384.535L1021.92 385.318L1020.9 392.3L1019.7 392.125L1020.58 386.169L1017.51 385.721L1017.27 387.424C1017.03 389.004 1016.68 390.079 1016.2 390.65C1015.73 391.223 1015.05 391.445 1014.18 391.316L1013.94 391.282ZM1024.54 386.579C1025.26 385.977 1026.15 385.754 1027.21 385.909C1028.28 386.064 1029.06 386.533 1029.57 387.315C1030.09 388.098 1030.27 389.021 1030.11 390.083C1029.96 391.145 1029.52 391.977 1028.8 392.579C1028.09 393.182 1027.2 393.406 1026.14 393.251C1025.08 393.095 1024.29 392.626 1023.77 391.843C1023.26 391.061 1023.09 390.139 1023.24 389.077C1023.4 388.015 1023.83 387.182 1024.54 386.579ZM1024.72 391.219C1025.04 391.783 1025.56 392.119 1026.29 392.226C1027.02 392.333 1027.61 392.16 1028.08 391.709C1028.54 391.249 1028.83 390.649 1028.93 389.91C1029.04 389.172 1028.94 388.52 1028.63 387.955C1028.31 387.381 1027.79 387.041 1027.06 386.934C1026.33 386.827 1025.74 387.004 1025.27 387.465C1024.81 387.916 1024.53 388.511 1024.42 389.249C1024.31 389.988 1024.41 390.645 1024.72 391.219ZM1036.92 390.711L1036.87 391.016C1037.2 391.149 1037.45 391.374 1037.61 391.69C1037.78 392.007 1037.84 392.383 1037.77 392.817C1037.59 394.091 1036.67 394.608 1035.03 394.368L1031.44 393.843L1032.46 386.861L1035.92 387.368C1036.63 387.47 1037.14 387.707 1037.47 388.076C1037.82 388.437 1037.95 388.895 1037.87 389.449C1037.82 389.773 1037.71 390.043 1037.52 390.262C1037.35 390.482 1037.15 390.632 1036.92 390.711ZM1032.75 393.015L1035.1 393.36C1036.01 393.493 1036.51 393.212 1036.61 392.52C1036.72 391.818 1036.31 391.401 1035.41 391.268L1033.05 390.924L1032.75 393.015ZM1033.48 388.029L1033.2 389.926L1035.39 390.247C1035.79 390.305 1036.08 390.259 1036.29 390.109C1036.5 389.961 1036.62 389.748 1036.66 389.471C1036.76 388.834 1036.42 388.46 1035.67 388.349L1033.48 388.029ZM1044.36 393.583L1045.53 393.755C1045.29 394.436 1044.88 394.947 1044.31 395.287C1043.74 395.619 1043.06 395.727 1042.26 395.611C1041.21 395.457 1040.43 394.993 1039.92 394.221C1039.42 393.44 1039.25 392.514 1039.41 391.443C1039.56 390.363 1039.99 389.525 1040.69 388.929C1041.39 388.334 1042.28 388.114 1043.34 388.269C1044.14 388.387 1044.76 388.685 1045.2 389.164C1045.65 389.636 1045.89 390.213 1045.91 390.895L1044.73 390.723C1044.6 389.901 1044.08 389.425 1043.19 389.294C1042.44 389.185 1041.84 389.352 1041.4 389.797C1040.97 390.233 1040.7 390.83 1040.59 391.588C1040.48 392.354 1040.57 393.018 1040.86 393.58C1041.16 394.142 1041.67 394.478 1042.41 394.586C1043.39 394.729 1044.04 394.395 1044.36 393.583ZM1051.8 396.823L1050.7 393.521L1048.61 393.214L1048.16 396.29L1046.98 396.117L1048 389.136L1049.18 389.308L1048.76 392.189L1050.88 392.5L1052.75 389.831L1053.99 390.012L1051.79 393.128L1053.06 397.007L1051.8 396.823ZM1056.4 397.495L1054.73 397.252L1055.75 390.27L1056.9 390.439L1056.11 395.841L1056.42 395.886L1060.27 390.931L1061.99 391.183L1060.97 398.164L1059.82 397.996L1060.61 392.593L1060.3 392.549L1056.4 397.495ZM1064.9 398.741L1063.24 398.497L1064.26 391.516L1065.41 391.684L1064.62 397.086L1064.93 397.131L1068.78 392.177L1070.5 392.428L1069.48 399.41L1068.33 399.241L1069.12 393.839L1068.81 393.794L1064.9 398.741ZM1069 389.097L1069.96 389.236C1069.85 389.88 1069.58 390.35 1069.15 390.645C1068.72 390.941 1068.17 391.04 1067.5 390.943C1066.85 390.847 1066.36 390.596 1066.03 390.189C1065.7 389.783 1065.58 389.255 1065.65 388.606L1066.61 388.746C1066.51 389.534 1066.85 389.984 1067.63 390.098C1068.38 390.208 1068.84 389.875 1069 389.097ZM1075.2 394.164L1075.35 393.139L1081.37 394.019L1081.22 395.044L1078.8 394.691L1077.93 400.647L1076.76 400.475L1077.63 394.519L1075.2 394.164ZM1086.15 395.582C1085.42 395.475 1084.83 395.648 1084.39 396.102C1083.95 396.557 1083.68 397.159 1083.57 397.907C1083.46 398.655 1083.55 399.309 1083.84 399.87C1084.13 400.432 1084.64 400.766 1085.37 400.873C1086.06 400.973 1086.62 400.81 1087.06 400.384C1087.51 399.95 1087.79 399.336 1087.91 398.542C1088.02 397.747 1087.93 397.082 1087.62 396.547C1087.32 396.003 1086.83 395.682 1086.15 395.582ZM1082.92 394.246L1084.05 394.412L1083.95 395.16L1084.25 395.205C1084.84 394.659 1085.61 394.456 1086.56 394.595C1087.5 394.733 1088.2 395.188 1088.64 395.96C1089.09 396.734 1089.24 397.652 1089.08 398.714C1088.93 399.794 1088.52 400.636 1087.87 401.238C1087.22 401.842 1086.43 402.075 1085.49 401.937C1084.53 401.796 1083.86 401.383 1083.49 400.696L1083.18 400.652L1082.67 404.17L1081.49 403.998L1082.92 394.246ZM1094.87 403.126L1094.97 402.391L1094.67 402.347C1094.1 402.886 1093.33 403.085 1092.36 402.943C1091.59 402.831 1091.02 402.52 1090.63 402.01C1090.24 401.501 1090.09 400.932 1090.19 400.304C1090.28 399.667 1090.58 399.154 1091.09 398.767C1091.6 398.379 1092.3 398.251 1093.2 398.382L1095.47 398.714L1095.51 398.437C1095.57 397.994 1095.49 397.623 1095.25 397.324C1095.01 397.015 1094.6 396.819 1094.02 396.734C1093 396.585 1092.41 396.843 1092.25 397.508L1091.07 397.335C1091.21 396.705 1091.56 396.246 1092.11 395.959C1092.67 395.673 1093.35 395.588 1094.14 395.704C1095.04 395.836 1095.71 396.146 1096.16 396.636C1096.61 397.127 1096.78 397.761 1096.67 398.536L1095.97 403.288L1094.87 403.126ZM1092.8 401.96C1093.38 402.045 1093.91 401.93 1094.39 401.613C1094.88 401.288 1095.16 400.848 1095.24 400.294L1095.33 399.656L1093.24 399.35C1092.12 399.187 1091.5 399.548 1091.37 400.435C1091.31 400.832 1091.4 401.166 1091.65 401.438C1091.9 401.71 1092.28 401.885 1092.8 401.96ZM1102.95 404.309L1101.85 401.007L1099.76 400.7L1099.31 403.776L1098.13 403.603L1099.15 396.622L1100.33 396.794L1099.91 399.675L1102.03 399.986L1103.9 397.317L1105.14 397.498L1102.94 400.614L1104.21 404.493L1102.95 404.309ZM1106.03 398.676L1106.18 397.651L1112.19 398.531L1112.04 399.556L1109.63 399.203L1108.76 405.16L1107.59 404.987L1108.46 399.031L1106.03 398.676Z" fill="black"/>
<rect x="571.848" y="106.008" width="100.027" height="104.14" transform="rotate(4.67175 571.848 106.008)" stroke="black" stroke-width="2"/>
<rect x="1057.22" y="294.699" width="272.776" height="46.7995" transform="rotate(8.1348 1057.22 294.699)" stroke="black" stroke-width="2"/>
<path d="M171.965 293.446L178.921 290.355C179.81 289.96 179.668 288.657 178.715 288.462L172.301 287.148C171.729 287.03 171.179 287.426 171.108 288.005L170.566 292.41C170.471 293.182 171.255 293.762 171.965 293.446Z" stroke="black" stroke-width="2"/>
<path d="M164.227 292.253L158.319 287.455C157.563 286.842 158.04 285.62 159.011 285.68L165.546 286.085C166.128 286.121 166.556 286.646 166.474 287.224L165.848 291.618C165.738 292.387 164.831 292.743 164.227 292.253Z" stroke="black" stroke-width="2"/>
<path d="M599.155 1L405.389 307.939" stroke="black" stroke-width="2" stroke-linecap="round" stroke-linejoin="round"/>
<path d="M479.981 188.336C475.408 185.621 465.92 179.848 464.548 178.476C462.833 176.761 461.976 174.189 461.547 169.045C461.204 164.93 457.975 161.615 456.403 160.471L313.334 78.1354C308.607 75.4151 302.989 74.8272 297.636 75.8705C291.687 77.0302 284.842 77.78 281.07 76.4489C275.702 74.5543 259.988 67.6684 251.062 63.6888C249.634 63.0521 248.3 62.2186 246.863 61.6027C243.695 60.2454 237.587 58.7732 228.342 59.3015C216.339 59.9874 203.621 59.5873 198.763 59.3015" stroke="black" stroke-width="2"/>
<path d="M483.41 183.62L524.159 206.588C528.09 208.803 530.446 213.038 530.256 217.546L528.85 250.924C528.85 253.067 529.622 257.526 532.709 258.211C535.795 258.897 618.874 265.07 660.028 268.071C660.886 268.214 662.515 269.1 662.172 271.501C661.829 273.901 658.313 302.509 656.599 316.513L616.302 310.94C613.587 310.368 607.214 308.368 603.442 304.938C599.669 301.509 587.295 290.934 581.579 286.076C580.293 285.79 577.12 285.219 574.72 285.219C571.719 285.219 566.575 286.076 563.574 287.791C560.573 289.505 555 293.364 555 304.938C555 314.198 555 324.229 555 329.802" stroke="black" stroke-width="2"/>
<path d="M1252.9 445.547L1194.6 805.214" stroke="black" stroke-width="2"/>
<path d="M939.532 387.675L941.995 365.859C942.295 363.196 940.444 360.77 937.797 360.358L656.599 316.513" stroke="black" stroke-width="2"/>
<path d="M574.291 457.55C569.004 461.123 561.174 465.61 555.001 465.267C547.284 464.838 499.7 462.266 494.127 460.98C488.554 459.694 480.838 462.695 475.694 467.41C471.578 471.183 453.688 488.701 445.257 496.989C442.256 499.847 437.541 508.65 442.685 520.996C449.115 536.428 483.838 605.018 488.983 623.88C493.098 638.97 491.841 660.462 490.697 669.321C487.411 702.187 494.127 766.413 494.127 769.5C494.127 773.358 493.698 779.788 495.413 781.932" stroke="black" stroke-width="2"/>
<path d="M61.0258 258L1371.09 450.819M1369.8 461.868L556.286 342.376M502.271 334.215L546.855 341.09M488.553 333.133L244.236 297.572C219.277 293.939 181.97 284.753 173.739 308.594C173.621 308.936 173.515 309.287 173.421 309.646C166.376 336.653 146.843 560.141 134.84 680.459" stroke="black" stroke-width="2" stroke-linejoin="round"/>
<path d="M823.051 821.391L487.85 332.803M503.026 334.5L547.913 400.455C544.865 384.183 542.748 366.668 545.007 350.268L546.389 340.23M831.148 814.581L569.09 431.006C563.469 422.778 559.552 413.509 557.57 403.744V403.744C553.795 384.931 553.204 365.618 555.821 346.609L556.659 340.525" stroke="black" stroke-width="2" stroke-linejoin="round"/>
<path d="M117.979 684.743L155.111 313.84C155.885 306.105 155.947 298.117 152.153 291.333C150.505 288.384 148.416 285.719 145.986 284.639C139.813 281.896 70.3857 272.643 60.5259 271.5" stroke="black" stroke-width="2"/>
<path d="M945.104 324.229L957.536 244.922L803.638 157.47L807.496 150.611L710.184 98.7402L675.032 162.186L772.344 213.628L777.917 208.912L861.082 256.497L876.086 312.37L945.104 324.229Z" stroke="black" stroke-width="2"/>
<path d="M573.627 173.499H573.855C574.255 173.499 574.563 173.395 574.779 173.187C574.995 172.979 575.163 172.559 575.283 171.927C575.403 171.287 575.463 170.359 575.463 169.143V165.999H581.091V174.567H580.011V166.983H576.483V169.347C576.483 170.739 576.387 171.819 576.195 172.587C576.011 173.347 575.735 173.867 575.367 174.147C575.007 174.427 574.507 174.567 573.867 174.567H573.627V173.499ZM588.406 171.183V171.531H583.798C583.814 172.259 583.986 172.827 584.314 173.235C584.642 173.635 585.114 173.835 585.73 173.835C586.562 173.835 587.074 173.523 587.266 172.899H588.298C588.194 173.443 587.918 173.883 587.47 174.219C587.03 174.555 586.45 174.723 585.73 174.723C584.81 174.723 584.09 174.423 583.57 173.823C583.05 173.223 582.79 172.443 582.79 171.483C582.79 170.539 583.05 169.783 583.57 169.215C584.09 168.647 584.802 168.363 585.706 168.363C586.562 168.363 587.222 168.635 587.686 169.179C588.15 169.715 588.39 170.383 588.406 171.183ZM585.682 169.251C585.162 169.251 584.746 169.387 584.434 169.659C584.122 169.923 583.93 170.263 583.858 170.679H587.35C587.318 170.271 587.154 169.931 586.858 169.659C586.562 169.387 586.17 169.251 585.682 169.251ZM592.898 169.251C592.266 169.251 591.79 169.471 591.47 169.911C591.158 170.351 591.002 170.895 591.002 171.543C591.002 172.191 591.158 172.735 591.47 173.175C591.79 173.615 592.266 173.835 592.898 173.835C593.49 173.835 593.946 173.627 594.266 173.211C594.594 172.787 594.758 172.231 594.758 171.543C594.758 170.855 594.594 170.303 594.266 169.887C593.946 169.463 593.49 169.251 592.898 169.251ZM589.994 168.519H590.978V169.167H591.242C591.674 168.631 592.302 168.363 593.126 168.363C593.942 168.363 594.586 168.663 595.058 169.263C595.538 169.863 595.778 170.623 595.778 171.543C595.778 172.479 595.538 173.243 595.058 173.835C594.586 174.427 593.942 174.723 593.126 174.723C592.294 174.723 591.678 174.455 591.278 173.919H591.014V176.967H589.994V168.519ZM598.868 176.967H597.836L599.084 174.003L596.504 168.519H597.596L599.444 172.503H599.744L601.424 168.519H602.492L598.868 176.967ZM607.428 174.567V173.931H607.164C606.748 174.459 606.12 174.723 605.28 174.723C604.616 174.723 604.088 174.531 603.696 174.147C603.304 173.763 603.108 173.299 603.108 172.755C603.108 172.203 603.3 171.731 603.684 171.339C604.068 170.947 604.648 170.751 605.424 170.751H607.392V170.511C607.392 170.127 607.272 169.823 607.032 169.599C606.792 169.367 606.42 169.251 605.916 169.251C605.036 169.251 604.568 169.543 604.512 170.127H603.492C603.532 169.575 603.768 169.143 604.2 168.831C604.64 168.519 605.204 168.363 605.892 168.363C606.668 168.363 607.276 168.543 607.716 168.903C608.164 169.263 608.388 169.779 608.388 170.451V174.567H607.428ZM605.532 173.835C606.036 173.835 606.472 173.671 606.84 173.343C607.208 173.007 607.392 172.599 607.392 172.119V171.567H605.58C604.612 171.567 604.128 171.951 604.128 172.719C604.128 173.063 604.248 173.335 604.488 173.535C604.736 173.735 605.084 173.835 605.532 173.835ZM613.704 174.567V165.999H615.504L617.664 170.019H617.928L620.052 165.999H621.864V174.567H620.808V167.223H620.544L618.348 171.291H617.22L615.024 167.223H614.76V174.567H613.704ZM629.187 171.183V171.531H624.579C624.595 172.259 624.767 172.827 625.095 173.235C625.423 173.635 625.895 173.835 626.511 173.835C627.343 173.835 627.855 173.523 628.047 172.899H629.079C628.975 173.443 628.699 173.883 628.251 174.219C627.811 174.555 627.231 174.723 626.511 174.723C625.591 174.723 624.871 174.423 624.351 173.823C623.831 173.223 623.571 172.443 623.571 171.483C623.571 170.539 623.831 169.783 624.351 169.215C624.871 168.647 625.583 168.363 626.487 168.363C627.343 168.363 628.003 168.635 628.467 169.179C628.931 169.715 629.171 170.383 629.187 171.183ZM626.463 169.251C625.943 169.251 625.527 169.387 625.215 169.659C624.903 169.923 624.711 170.263 624.639 170.679H628.131C628.099 170.271 627.935 169.931 627.639 169.659C627.343 169.387 626.951 169.251 626.463 169.251ZM633.68 169.251C633.048 169.251 632.572 169.471 632.252 169.911C631.94 170.351 631.784 170.895 631.784 171.543C631.784 172.191 631.94 172.735 632.252 173.175C632.572 173.615 633.048 173.835 633.68 173.835C634.272 173.835 634.728 173.627 635.048 173.211C635.376 172.787 635.54 172.231 635.54 171.543C635.54 170.855 635.376 170.303 635.048 169.887C634.728 169.463 634.272 169.251 633.68 169.251ZM630.776 168.519H631.76V169.167H632.024C632.456 168.631 633.084 168.363 633.908 168.363C634.724 168.363 635.368 168.663 635.84 169.263C636.32 169.863 636.56 170.623 636.56 171.543C636.56 172.479 636.32 173.243 635.84 173.835C635.368 174.427 634.724 174.723 633.908 174.723C633.076 174.723 632.46 174.455 632.06 173.919H631.796V176.967H630.776V168.519ZM637.474 174.567V173.607H637.678C638.102 173.607 638.406 173.411 638.59 173.019C638.774 172.619 638.866 171.899 638.866 170.859V168.519H643.498V174.567H642.466V169.407H639.814V170.883C639.814 172.251 639.646 173.207 639.31 173.751C638.982 174.295 638.438 174.567 637.678 174.567H637.474ZM650.703 171.183V171.531H646.095C646.111 172.259 646.283 172.827 646.611 173.235C646.939 173.635 647.411 173.835 648.027 173.835C648.859 173.835 649.371 173.523 649.563 172.899H650.595C650.491 173.443 650.215 173.883 649.767 174.219C649.327 174.555 648.747 174.723 648.027 174.723C647.107 174.723 646.387 174.423 645.867 173.823C645.347 173.223 645.087 172.443 645.087 171.483C645.087 170.539 645.347 169.783 645.867 169.215C646.387 168.647 647.099 168.363 648.003 168.363C648.859 168.363 649.519 168.635 649.983 169.179C650.447 169.715 650.687 170.383 650.703 171.183ZM647.979 169.251C647.459 169.251 647.043 169.387 646.731 169.659C646.419 169.923 646.227 170.263 646.155 170.679H649.647C649.615 170.271 649.451 169.931 649.155 169.659C648.859 169.387 648.467 169.251 647.979 169.251ZM657.679 174.567H656.659V171.903H653.311V174.567H652.291V168.519H653.311V171.015H656.659V168.519H657.679V174.567Z" fill="black"/>
<path d="M609.452 152.086V155.936C609.452 159.785 610.995 161.328 614.845 161.328H619.466C623.316 161.328 624.859 159.785 624.859 155.936V152.086" stroke="black" stroke-linecap="round" stroke-linejoin="round"/>
<path d="M617.16 152.755C618.729 152.755 619.887 151.477 619.732 149.908L619.166 144.181H615.162L614.588 149.908C614.434 151.477 615.591 152.755 617.16 152.755Z" stroke="black" stroke-linecap="round" stroke-linejoin="round"/>
<path d="M622.57 152.755C624.302 152.755 625.571 151.349 625.399 149.625L625.159 147.268C624.851 145.039 623.993 144.181 621.747 144.181H619.132L619.732 150.191C619.878 151.606 621.155 152.755 622.57 152.755Z" stroke="black" stroke-linecap="round" stroke-linejoin="round"/>
<path d="M611.707 152.755C613.122 152.755 614.399 151.606 614.536 150.191L614.725 148.297L615.137 144.181H612.522C610.275 144.181 609.418 145.039 609.109 147.268L608.878 149.625C608.706 151.349 609.975 152.755 611.707 152.755Z" stroke="black" stroke-linecap="round" stroke-linejoin="round"/>
<path d="M617.16 157.042C615.728 157.042 615.017 157.753 615.017 159.185V161.328H619.303V159.185C619.303 157.753 618.592 157.042 617.16 157.042Z" stroke="black" stroke-linecap="round" stroke-linejoin="round"/>
<path d="M1154.42 342.084H1149.64V349.668H1148.56V341.1H1154.42V342.084ZM1157.21 344.352C1156.58 344.352 1156.1 344.572 1155.78 345.012C1155.47 345.452 1155.31 345.996 1155.31 346.644C1155.31 347.292 1155.47 347.836 1155.78 348.276C1156.1 348.716 1156.58 348.936 1157.21 348.936C1157.8 348.936 1158.26 348.728 1158.58 348.312C1158.9 347.888 1159.07 347.332 1159.07 346.644C1159.07 345.956 1158.9 345.404 1158.58 344.988C1158.26 344.564 1157.8 344.352 1157.21 344.352ZM1154.3 343.62H1155.29V344.268H1155.55C1155.98 343.732 1156.61 343.464 1157.44 343.464C1158.25 343.464 1158.9 343.764 1159.37 344.364C1159.85 344.964 1160.09 345.724 1160.09 346.644C1160.09 347.58 1159.85 348.344 1159.37 348.936C1158.9 349.528 1158.25 349.824 1157.44 349.824C1156.6 349.824 1155.99 349.556 1155.59 349.02H1155.32V352.068H1154.3V343.62ZM1165.54 349.668V349.032H1165.27C1164.86 349.56 1164.23 349.824 1163.39 349.824C1162.73 349.824 1162.2 349.632 1161.81 349.248C1161.41 348.864 1161.22 348.4 1161.22 347.856C1161.22 347.304 1161.41 346.832 1161.79 346.44C1162.18 346.048 1162.76 345.852 1163.53 345.852H1165.5V345.612C1165.5 345.228 1165.38 344.924 1165.14 344.7C1164.9 344.468 1164.53 344.352 1164.03 344.352C1163.15 344.352 1162.68 344.644 1162.62 345.228H1161.6C1161.64 344.676 1161.88 344.244 1162.31 343.932C1162.75 343.62 1163.31 343.464 1164 343.464C1164.78 343.464 1165.39 343.644 1165.83 344.004C1166.27 344.364 1166.5 344.88 1166.5 345.552V349.668H1165.54ZM1163.64 348.936C1164.15 348.936 1164.58 348.772 1164.95 348.444C1165.32 348.108 1165.5 347.7 1165.5 347.22V346.668H1163.69C1162.72 346.668 1162.24 347.052 1162.24 347.82C1162.24 348.164 1162.36 348.436 1162.6 348.636C1162.85 348.836 1163.19 348.936 1163.64 348.936ZM1173.75 349.668H1172.73V347.004H1169.39V349.668H1168.37V343.62H1169.39V346.116H1172.73V343.62H1173.75V349.668ZM1181.11 348.78H1182.23V351.384H1181.23V349.668H1176V351.384H1175.01V348.78H1175.81C1176.31 347.724 1176.55 346.556 1176.55 345.276V343.62H1181.11V348.78ZM1180.09 348.78V344.508H1177.5V345.276C1177.5 346.644 1177.28 347.812 1176.84 348.78H1180.09ZM1192.79 349.668L1191.9 347.04H1188.14L1187.25 349.668H1186.15L1189.11 341.1H1190.94L1193.91 349.668H1192.79ZM1189.77 342.204L1188.47 346.056H1191.56L1190.25 342.204H1189.77ZM1198.59 343.62V344.58H1198.08C1197.48 344.58 1197 344.76 1196.66 345.12C1196.32 345.48 1196.15 345.988 1196.15 346.644V349.668H1195.13V343.62H1196.12V344.34H1196.38C1196.76 343.86 1197.35 343.62 1198.13 343.62H1198.59ZM1205.17 346.284V346.632H1200.56C1200.58 347.36 1200.75 347.928 1201.08 348.336C1201.4 348.736 1201.88 348.936 1202.49 348.936C1203.32 348.936 1203.84 348.624 1204.03 348H1205.06C1204.96 348.544 1204.68 348.984 1204.23 349.32C1203.79 349.656 1203.21 349.824 1202.49 349.824C1201.57 349.824 1200.85 349.524 1200.33 348.924C1199.81 348.324 1199.55 347.544 1199.55 346.584C1199.55 345.64 1199.81 344.884 1200.33 344.316C1200.85 343.748 1201.56 343.464 1202.47 343.464C1203.32 343.464 1203.98 343.736 1204.45 344.28C1204.91 344.816 1205.15 345.484 1205.17 346.284ZM1202.44 344.352C1201.92 344.352 1201.51 344.488 1201.2 344.76C1200.88 345.024 1200.69 345.364 1200.62 345.78H1204.11C1204.08 345.372 1203.92 345.032 1203.62 344.76C1203.32 344.488 1202.93 344.352 1202.44 344.352ZM1212.13 349.668H1211.11V346.044C1211.11 344.932 1210.6 344.376 1209.58 344.376C1209.05 344.376 1208.62 344.576 1208.28 344.976C1207.94 345.368 1207.78 345.84 1207.78 346.392V349.668H1206.76V343.62H1207.74V344.268H1208C1208.18 344.028 1208.43 343.836 1208.75 343.692C1209.07 343.54 1209.43 343.464 1209.83 343.464C1210.56 343.464 1211.13 343.676 1211.53 344.1C1211.93 344.516 1212.13 345.092 1212.13 345.828V349.668ZM1217.85 349.668V349.032H1217.59C1217.17 349.56 1216.54 349.824 1215.7 349.824C1215.04 349.824 1214.51 349.632 1214.12 349.248C1213.73 348.864 1213.53 348.4 1213.53 347.856C1213.53 347.304 1213.72 346.832 1214.11 346.44C1214.49 346.048 1215.07 345.852 1215.85 345.852H1217.81V345.612C1217.81 345.228 1217.69 344.924 1217.45 344.7C1217.21 344.468 1216.84 344.352 1216.34 344.352C1215.46 344.352 1214.99 344.644 1214.93 345.228H1213.91C1213.95 344.676 1214.19 344.244 1214.62 343.932C1215.06 343.62 1215.63 343.464 1216.31 343.464C1217.09 343.464 1217.7 343.644 1218.14 344.004C1218.59 344.364 1218.81 344.88 1218.81 345.552V349.668H1217.85ZM1215.95 348.936C1216.46 348.936 1216.89 348.772 1217.26 348.444C1217.63 348.108 1217.81 347.7 1217.81 347.22V346.668H1216C1215.03 346.668 1214.55 347.052 1214.55 347.82C1214.55 348.164 1214.67 348.436 1214.91 348.636C1215.16 348.836 1215.51 348.936 1215.95 348.936Z" fill="black"/>
<path d="M1176.05 327.187V331.037C1176.05 334.886 1177.6 336.429 1181.45 336.429H1186.07C1189.92 336.429 1191.46 334.886 1191.46 331.037V327.187" stroke="black" stroke-linecap="round" stroke-linejoin="round"/>
<path d="M1183.76 327.856C1185.33 327.856 1186.49 326.578 1186.33 325.009L1185.77 319.282H1181.76L1181.19 325.009C1181.03 326.578 1182.19 327.856 1183.76 327.856Z" stroke="black" stroke-linecap="round" stroke-linejoin="round"/>
<path d="M1189.17 327.856C1190.9 327.856 1192.17 326.45 1192 324.727L1191.76 322.369C1191.45 320.14 1190.59 319.282 1188.35 319.282H1185.73L1186.33 325.292C1186.48 326.707 1187.76 327.856 1189.17 327.856Z" stroke="black" stroke-linecap="round" stroke-linejoin="round"/>
<path d="M1178.31 327.856C1179.72 327.856 1181 326.707 1181.14 325.292L1181.33 323.398L1181.74 319.282H1179.12C1176.88 319.282 1176.02 320.14 1175.71 322.369L1175.48 324.727C1175.31 326.45 1176.58 327.856 1178.31 327.856Z" stroke="black" stroke-linecap="round" stroke-linejoin="round"/>
<path d="M1183.76 332.143C1182.33 332.143 1181.62 332.854 1181.62 334.286V336.429H1185.9V334.286C1185.9 332.854 1185.19 332.143 1183.76 332.143Z" stroke="black" stroke-linecap="round" stroke-linejoin="round"/>
<path d="M468.006 654.328L429.377 673.045C427.927 673.747 426.182 673.18 425.423 671.759L413.519 649.484C413.23 648.943 412.781 648.503 412.234 648.224L376.699 630.143C375.542 629.554 374.895 628.287 375.096 627.004L379.663 597.938C379.908 596.38 378.905 594.899 377.369 594.548L283.955 573.171C282.335 572.8 281.325 571.184 281.703 569.565L288.201 541.691C288.583 540.052 287.542 538.419 285.894 538.074L276.296 536.065C274.664 535.723 273.623 534.116 273.98 532.486L283.9 487.239C284.272 485.541 286.005 484.514 287.673 485.003L399.04 517.605C399.823 517.834 400.479 518.372 400.856 519.095L469.357 650.239C470.14 651.739 469.529 653.59 468.006 654.328Z" stroke="black" stroke-width="2"/>
<path opacity="0.5" d="M600.193 694.97C600.818 692.499 605.404 690.336 607.618 689.564C611.526 686.475 608.79 682.613 603.71 679.91C598.63 677.207 572.837 689.564 573.618 682.613C574.4 675.662 574.009 676.434 550.17 672.572C526.331 668.711 516.952 676.82 521.642 682.613C526.332 688.405 523.987 700.377 521.642 727.023C519.297 753.669 523.205 755.213 536.102 767.185C548.998 779.156 564.63 771.046 568.929 768.729C573.228 766.412 599.411 698.06 600.193 694.97Z" fill="#434343"/>
<path opacity="0.5" d="M481.337 503.734C480.648 501.938 479.828 501.007 478.904 500.521C474.958 498.441 473.762 495.815 477.313 493.115C480.935 490.362 486.971 498.621 490.191 503.734C493.411 508.847 496.63 513.174 497.435 520.253C498.24 527.333 485.362 526.939 483.349 521.433C481.337 515.927 483.752 510.027 481.337 503.734Z" fill="#434343"/>
<path opacity="0.5" d="M550.092 572.659C555.561 568.116 556.982 557.186 557 548.86C557.01 544.449 556.784 539.41 560.139 536.546C566.12 531.441 576.598 536.969 585.056 544.53C595.545 553.906 585.444 555.078 594.379 575.003C603.314 594.928 590.883 599.616 589.329 611.727C587.775 623.838 618.077 625.011 631.673 628.136C645.27 631.261 660.033 647.279 670.133 665.642C680.234 684.004 678.291 701.194 674.018 704.71C669.745 708.226 665.86 717.212 660.033 738.699C654.205 760.187 675.96 760.578 684.118 771.517C692.277 782.456 695.384 785.972 675.96 800.427C656.536 814.883 660.421 795.739 663.14 781.284C665.86 766.829 653.817 760.187 645.659 745.341C637.501 730.495 645.27 731.667 653.817 731.667C662.364 731.667 646.436 724.635 637.112 717.212C627.789 709.789 628.566 714.477 629.731 696.115C630.896 677.753 625.458 678.143 612.638 669.939C599.818 661.735 591.66 648.452 580.782 639.075C569.905 629.699 541.546 611.727 550.092 601.57C558.639 591.412 541.157 580.082 550.092 572.659Z" fill="#434343"/>
<path d="M341.597 538.772H333.597C331.597 538.772 330.597 537.772 330.597 535.772V527.772C330.597 525.772 331.597 524.772 333.597 524.772H338.597V535.772C338.597 537.772 339.597 538.772 341.597 538.772Z" stroke="black" stroke-miterlimit="10" stroke-linecap="round" stroke-linejoin="round"/>
<path d="M338.707 520.772C338.627 521.072 338.597 521.402 338.597 521.772V524.772H333.597V522.772C333.597 521.672 334.497 520.772 335.597 520.772H338.707Z" stroke="black" stroke-miterlimit="10" stroke-linecap="round" stroke-linejoin="round"/>
<path d="M342.597 524.772V529.772" stroke="black" stroke-miterlimit="10" stroke-linecap="round" stroke-linejoin="round"/>
<path d="M346.597 524.772V529.772" stroke="black" stroke-miterlimit="10" stroke-linecap="round" stroke-linejoin="round"/>
<path d="M345.597 533.772H343.597C343.047 533.772 342.597 534.222 342.597 534.772V538.772H346.597V534.772C346.597 534.222 346.147 533.772 345.597 533.772Z" stroke="black" stroke-miterlimit="10" stroke-linecap="round" stroke-linejoin="round"/>
<path d="M334.597 529.772V533.772" stroke="black" stroke-miterlimit="10" stroke-linecap="round" stroke-linejoin="round"/>
<path d="M338.597 535.772V521.772C338.597 519.772 339.597 518.772 341.597 518.772H347.597C349.597 518.772 350.597 519.772 350.597 521.772V535.772C350.597 537.772 349.597 538.772 347.597 538.772H341.597C339.597 538.772 338.597 537.772 338.597 535.772Z" stroke="black" stroke-miterlimit="10" stroke-linecap="round" stroke-linejoin="round"/>
<path d="M308.555 550.336H309.695C309.511 551.128 309.127 551.76 308.543 552.232C307.959 552.696 307.211 552.928 306.299 552.928C305.051 552.928 304.079 552.516 303.383 551.692C302.687 550.868 302.339 549.8 302.339 548.488C302.339 547.176 302.691 546.108 303.395 545.284C304.099 544.46 305.071 544.048 306.311 544.048C307.175 544.048 307.895 544.264 308.471 544.696C309.047 545.12 309.423 545.704 309.599 546.448H308.459C308.123 545.504 307.407 545.032 306.311 545.032C305.367 545.032 304.651 545.364 304.163 546.028C303.675 546.692 303.431 547.512 303.431 548.488C303.431 549.472 303.671 550.296 304.151 550.96C304.639 551.616 305.355 551.944 306.299 551.944C306.891 551.944 307.379 551.804 307.763 551.524C308.147 551.236 308.411 550.84 308.555 550.336ZM310.652 547.612V546.724H315.86V547.612H313.772V552.772H312.752V547.612H310.652ZM320.11 547.456C319.478 547.456 319.002 547.676 318.682 548.116C318.37 548.556 318.214 549.1 318.214 549.748C318.214 550.396 318.37 550.94 318.682 551.38C319.002 551.82 319.478 552.04 320.11 552.04C320.702 552.04 321.158 551.832 321.478 551.416C321.806 550.992 321.97 550.436 321.97 549.748C321.97 549.06 321.806 548.508 321.478 548.092C321.158 547.668 320.702 547.456 320.11 547.456ZM317.206 546.724H318.19V547.372H318.454C318.886 546.836 319.514 546.568 320.338 546.568C321.154 546.568 321.798 546.868 322.27 547.468C322.75 548.068 322.99 548.828 322.99 549.748C322.99 550.684 322.75 551.448 322.27 552.04C321.798 552.632 321.154 552.928 320.338 552.928C319.506 552.928 318.89 552.66 318.49 552.124H318.226V555.172H317.206V546.724ZM325.009 547.468C325.545 546.868 326.273 546.568 327.193 546.568C328.113 546.568 328.837 546.868 329.365 547.468C329.901 548.068 330.169 548.828 330.169 549.748C330.169 550.668 329.901 551.428 329.365 552.028C328.837 552.628 328.113 552.928 327.193 552.928C326.273 552.928 325.545 552.628 325.009 552.028C324.481 551.428 324.217 550.668 324.217 549.748C324.217 548.828 324.481 548.068 325.009 547.468ZM325.741 551.38C326.077 551.82 326.561 552.04 327.193 552.04C327.825 552.04 328.309 551.82 328.645 551.38C328.981 550.932 329.149 550.388 329.149 549.748C329.149 549.108 328.981 548.568 328.645 548.128C328.309 547.68 327.825 547.456 327.193 547.456C326.561 547.456 326.077 547.68 325.741 548.128C325.405 548.568 325.237 549.108 325.237 549.748C325.237 550.388 325.405 550.932 325.741 551.38ZM333.717 546.724H336.729V552.772H335.697V550.384H333.861C333.701 550.384 333.577 550.38 333.489 550.372L332.577 552.772H331.509L332.529 550.144C331.905 549.848 331.593 549.32 331.593 548.56C331.593 547.976 331.773 547.524 332.133 547.204C332.501 546.884 333.029 546.724 333.717 546.724ZM335.697 547.588H333.825C333.385 547.588 333.073 547.672 332.889 547.84C332.705 548.008 332.613 548.252 332.613 548.572C332.613 548.884 332.705 549.12 332.889 549.28C333.073 549.44 333.385 549.52 333.825 549.52H335.697V547.588ZM345.431 546.724H346.427V551.884H347.543V554.488H346.547V552.772H338.687V546.724H339.683V551.884H342.059V546.724H343.055V551.884H345.431V546.724ZM350.299 552.772H348.859V546.724H349.855V551.404H350.119L352.771 546.724H354.259V552.772H353.263V548.092H352.999L350.299 552.772ZM357.67 552.772H356.23V546.724H357.226V551.404H357.49L360.142 546.724H361.63V552.772H360.634V548.092H360.37L357.67 552.772ZM359.95 544.084H360.778C360.762 544.644 360.59 545.076 360.262 545.38C359.934 545.684 359.482 545.836 358.906 545.836C358.338 545.836 357.89 545.684 357.562 545.38C357.234 545.076 357.062 544.644 357.046 544.084H357.874C357.89 544.764 358.234 545.104 358.906 545.104C359.562 545.104 359.91 544.764 359.95 544.084ZM367.693 550.948H368.713C368.593 551.556 368.309 552.04 367.861 552.4C367.421 552.752 366.857 552.928 366.169 552.928C365.257 552.928 364.537 552.632 364.009 552.04C363.489 551.44 363.229 550.676 363.229 549.748C363.229 548.812 363.489 548.048 364.009 547.456C364.529 546.864 365.249 546.568 366.169 546.568C366.865 546.568 367.429 546.744 367.861 547.096C368.301 547.44 368.573 547.9 368.677 548.476H367.657C367.441 547.796 366.945 547.456 366.169 547.456C365.521 547.456 365.037 547.672 364.717 548.104C364.405 548.528 364.249 549.068 364.249 549.724C364.249 550.388 364.409 550.94 364.729 551.38C365.049 551.82 365.529 552.04 366.169 552.04C367.017 552.04 367.525 551.676 367.693 550.948ZM372.19 546.724H375.202V552.772H374.17V550.384H372.334C372.174 550.384 372.05 550.38 371.962 550.372L371.05 552.772H369.982L371.002 550.144C370.378 549.848 370.066 549.32 370.066 548.56C370.066 547.976 370.246 547.524 370.606 547.204C370.974 546.884 371.502 546.724 372.19 546.724ZM374.17 547.588H372.298C371.858 547.588 371.546 547.672 371.362 547.84C371.178 548.008 371.086 548.252 371.086 548.572C371.086 548.884 371.178 549.12 371.362 549.28C371.546 549.44 371.858 549.52 372.298 549.52H374.17V547.588ZM322.056 567.772L320.712 565.108H318.9V567.772H317.88V561.724H318.9V564.22H320.736L321.996 561.724H323.064L321.588 564.64L323.148 567.772H322.056ZM328.855 564.436V564.7C329.151 564.772 329.387 564.932 329.563 565.18C329.747 565.428 329.839 565.74 329.839 566.116C329.839 567.22 329.127 567.772 327.703 567.772H324.595V561.724H327.595C328.203 561.724 328.671 561.86 328.999 562.132C329.335 562.396 329.503 562.768 329.503 563.248C329.503 563.528 329.439 563.772 329.311 563.98C329.191 564.188 329.039 564.34 328.855 564.436ZM325.603 566.908H327.643C328.427 566.908 328.819 566.608 328.819 566.008C328.819 565.4 328.427 565.096 327.643 565.096H325.603V566.908ZM325.603 562.588V564.232H327.499C327.843 564.232 328.091 564.156 328.243 564.004C328.403 563.852 328.483 563.656 328.483 563.416C328.483 562.864 328.155 562.588 327.499 562.588H325.603ZM335.279 567.772V567.136H335.015C334.599 567.664 333.971 567.928 333.131 567.928C332.467 567.928 331.939 567.736 331.547 567.352C331.155 566.968 330.959 566.504 330.959 565.96C330.959 565.408 331.151 564.936 331.535 564.544C331.919 564.152 332.499 563.956 333.275 563.956H335.243V563.716C335.243 563.332 335.123 563.028 334.883 562.804C334.643 562.572 334.271 562.456 333.767 562.456C332.887 562.456 332.419 562.748 332.363 563.332H331.343C331.383 562.78 331.619 562.348 332.051 562.036C332.491 561.724 333.055 561.568 333.743 561.568C334.519 561.568 335.127 561.748 335.567 562.108C336.015 562.468 336.239 562.984 336.239 563.656V567.772H335.279ZM333.383 567.04C333.887 567.04 334.323 566.876 334.691 566.548C335.059 566.212 335.243 565.804 335.243 565.324V564.772H333.431C332.463 564.772 331.979 565.156 331.979 565.924C331.979 566.268 332.099 566.54 332.339 566.74C332.587 566.94 332.935 567.04 333.383 567.04ZM341.011 562.456C340.379 562.456 339.903 562.676 339.583 563.116C339.271 563.556 339.115 564.1 339.115 564.748C339.115 565.396 339.271 565.94 339.583 566.38C339.903 566.82 340.379 567.04 341.011 567.04C341.603 567.04 342.059 566.832 342.379 566.416C342.707 565.992 342.871 565.436 342.871 564.748C342.871 564.06 342.707 563.508 342.379 563.092C342.059 562.668 341.603 562.456 341.011 562.456ZM338.107 561.724H339.091V562.372H339.355C339.787 561.836 340.415 561.568 341.239 561.568C342.055 561.568 342.699 561.868 343.171 562.468C343.651 563.068 343.891 563.828 343.891 564.748C343.891 565.684 343.651 566.448 343.171 567.04C342.699 567.632 342.055 567.928 341.239 567.928C340.407 567.928 339.791 567.66 339.391 567.124H339.127V570.172H338.107V561.724ZM344.748 562.612V561.724H349.956V562.612H347.868V567.772H346.848V562.612H344.748ZM355.154 567.772V567.136H354.89C354.474 567.664 353.846 567.928 353.006 567.928C352.342 567.928 351.814 567.736 351.422 567.352C351.03 566.968 350.834 566.504 350.834 565.96C350.834 565.408 351.026 564.936 351.41 564.544C351.794 564.152 352.374 563.956 353.15 563.956H355.118V563.716C355.118 563.332 354.998 563.028 354.758 562.804C354.518 562.572 354.146 562.456 353.642 562.456C352.762 562.456 352.294 562.748 352.238 563.332H351.218C351.258 562.78 351.494 562.348 351.926 562.036C352.366 561.724 352.93 561.568 353.618 561.568C354.394 561.568 355.002 561.748 355.442 562.108C355.89 562.468 356.114 562.984 356.114 563.656V567.772H355.154ZM353.258 567.04C353.762 567.04 354.198 566.876 354.566 566.548C354.934 566.212 355.118 565.804 355.118 565.324V564.772H353.306C352.338 564.772 351.854 565.156 351.854 565.924C351.854 566.268 351.974 566.54 352.214 566.74C352.462 566.94 352.81 567.04 353.258 567.04ZM357.298 567.772V566.812H357.502C357.926 566.812 358.23 566.616 358.414 566.224C358.598 565.824 358.69 565.104 358.69 564.064V561.724H363.322V567.772H362.29V562.612H359.638V564.088C359.638 565.456 359.47 566.412 359.134 566.956C358.806 567.5 358.262 567.772 357.502 567.772H357.298Z" fill="black"/>
<path d="M294.471 190H286.471C284.471 190 283.471 189 283.471 187V179C283.471 177 284.471 176 286.471 176H291.471V187C291.471 189 292.471 190 294.471 190Z" stroke="black" stroke-miterlimit="10" stroke-linecap="round" stroke-linejoin="round"/>
<path d="M291.581 172C291.501 172.3 291.471 172.63 291.471 173V176H286.471V174C286.471 172.9 287.371 172 288.471 172H291.581Z" stroke="black" stroke-miterlimit="10" stroke-linecap="round" stroke-linejoin="round"/>
<path d="M295.471 176V181" stroke="black" stroke-miterlimit="10" stroke-linecap="round" stroke-linejoin="round"/>
<path d="M299.471 176V181" stroke="black" stroke-miterlimit="10" stroke-linecap="round" stroke-linejoin="round"/>
<path d="M298.471 185H296.471C295.921 185 295.471 185.45 295.471 186V190H299.471V186C299.471 185.45 299.021 185 298.471 185Z" stroke="black" stroke-miterlimit="10" stroke-linecap="round" stroke-linejoin="round"/>
<path d="M287.471 181V185" stroke="black" stroke-miterlimit="10" stroke-linecap="round" stroke-linejoin="round"/>
<path d="M291.471 187V173C291.471 171 292.471 170 294.471 170H300.471C302.471 170 303.471 171 303.471 173V187C303.471 189 302.471 190 300.471 190H294.471C292.471 190 291.471 189 291.471 187Z" stroke="black" stroke-miterlimit="10" stroke-linecap="round" stroke-linejoin="round"/>
<path d="M261.429 201.564H262.569C262.385 202.356 262.001 202.988 261.417 203.46C260.833 203.924 260.085 204.156 259.173 204.156C257.925 204.156 256.953 203.744 256.257 202.92C255.561 202.096 255.213 201.028 255.213 199.716C255.213 198.404 255.565 197.336 256.269 196.512C256.973 195.688 257.945 195.276 259.185 195.276C260.049 195.276 260.769 195.492 261.345 195.924C261.921 196.348 262.297 196.932 262.473 197.676H261.333C260.997 196.732 260.281 196.26 259.185 196.26C258.241 196.26 257.525 196.592 257.037 197.256C256.549 197.92 256.305 198.74 256.305 199.716C256.305 200.7 256.545 201.524 257.025 202.188C257.513 202.844 258.229 203.172 259.173 203.172C259.765 203.172 260.253 203.032 260.637 202.752C261.021 202.464 261.285 202.068 261.429 201.564ZM263.527 198.84V197.952H268.735V198.84H266.647V204H265.627V198.84H263.527ZM272.984 198.684C272.352 198.684 271.876 198.904 271.556 199.344C271.244 199.784 271.088 200.328 271.088 200.976C271.088 201.624 271.244 202.168 271.556 202.608C271.876 203.048 272.352 203.268 272.984 203.268C273.576 203.268 274.032 203.06 274.352 202.644C274.68 202.22 274.844 201.664 274.844 200.976C274.844 200.288 274.68 199.736 274.352 199.32C274.032 198.896 273.576 198.684 272.984 198.684ZM270.08 197.952H271.064V198.6H271.328C271.76 198.064 272.388 197.796 273.212 197.796C274.028 197.796 274.672 198.096 275.144 198.696C275.624 199.296 275.864 200.056 275.864 200.976C275.864 201.912 275.624 202.676 275.144 203.268C274.672 203.86 274.028 204.156 273.212 204.156C272.38 204.156 271.764 203.888 271.364 203.352H271.1V206.4H270.08V197.952ZM277.883 198.696C278.419 198.096 279.147 197.796 280.067 197.796C280.987 197.796 281.711 198.096 282.239 198.696C282.775 199.296 283.043 200.056 283.043 200.976C283.043 201.896 282.775 202.656 282.239 203.256C281.711 203.856 280.987 204.156 280.067 204.156C279.147 204.156 278.419 203.856 277.883 203.256C277.355 202.656 277.091 201.896 277.091 200.976C277.091 200.056 277.355 199.296 277.883 198.696ZM278.615 202.608C278.951 203.048 279.435 203.268 280.067 203.268C280.699 203.268 281.183 203.048 281.519 202.608C281.855 202.16 282.023 201.616 282.023 200.976C282.023 200.336 281.855 199.796 281.519 199.356C281.183 198.908 280.699 198.684 280.067 198.684C279.435 198.684 278.951 198.908 278.615 199.356C278.279 199.796 278.111 200.336 278.111 200.976C278.111 201.616 278.279 202.16 278.615 202.608ZM286.591 197.952H289.603V204H288.571V201.612H286.735C286.575 201.612 286.451 201.608 286.363 201.6L285.451 204H284.383L285.403 201.372C284.779 201.076 284.467 200.548 284.467 199.788C284.467 199.204 284.647 198.752 285.007 198.432C285.375 198.112 285.903 197.952 286.591 197.952ZM288.571 198.816H286.699C286.259 198.816 285.947 198.9 285.763 199.068C285.579 199.236 285.487 199.48 285.487 199.8C285.487 200.112 285.579 200.348 285.763 200.508C285.947 200.668 286.259 200.748 286.699 200.748H288.571V198.816ZM298.305 197.952H299.301V203.112H300.417V205.716H299.421V204H291.561V197.952H292.557V203.112H294.933V197.952H295.929V203.112H298.305V197.952ZM303.173 204H301.733V197.952H302.729V202.632H302.993L305.645 197.952H307.133V204H306.137V199.32H305.873L303.173 204ZM310.544 204H309.104V197.952H310.1V202.632H310.364L313.016 197.952H314.504V204H313.508V199.32H313.244L310.544 204ZM312.824 195.312H313.652C313.636 195.872 313.464 196.304 313.136 196.608C312.808 196.912 312.356 197.064 311.78 197.064C311.212 197.064 310.764 196.912 310.436 196.608C310.108 196.304 309.936 195.872 309.92 195.312H310.748C310.764 195.992 311.108 196.332 311.78 196.332C312.436 196.332 312.784 195.992 312.824 195.312ZM320.567 202.176H321.587C321.467 202.784 321.183 203.268 320.735 203.628C320.295 203.98 319.731 204.156 319.043 204.156C318.131 204.156 317.411 203.86 316.883 203.268C316.363 202.668 316.103 201.904 316.103 200.976C316.103 200.04 316.363 199.276 316.883 198.684C317.403 198.092 318.123 197.796 319.043 197.796C319.739 197.796 320.303 197.972 320.735 198.324C321.175 198.668 321.447 199.128 321.551 199.704H320.531C320.315 199.024 319.819 198.684 319.043 198.684C318.395 198.684 317.911 198.9 317.591 199.332C317.279 199.756 317.123 200.296 317.123 200.952C317.123 201.616 317.283 202.168 317.603 202.608C317.923 203.048 318.403 203.268 319.043 203.268C319.891 203.268 320.399 202.904 320.567 202.176ZM325.064 197.952H328.076V204H327.044V201.612H325.208C325.048 201.612 324.924 201.608 324.836 201.6L323.924 204H322.856L323.876 201.372C323.252 201.076 322.94 200.548 322.94 199.788C322.94 199.204 323.12 198.752 323.48 198.432C323.848 198.112 324.376 197.952 325.064 197.952ZM327.044 198.816H325.172C324.732 198.816 324.42 198.9 324.236 199.068C324.052 199.236 323.96 199.48 323.96 199.8C323.96 200.112 324.052 200.348 324.236 200.508C324.42 200.668 324.732 200.748 325.172 200.748H327.044V198.816ZM274.93 219L273.586 216.336H271.774V219H270.754V212.952H271.774V215.448H273.61L274.87 212.952H275.938L274.462 215.868L276.022 219H274.93ZM281.729 215.664V215.928C282.025 216 282.261 216.16 282.437 216.408C282.621 216.656 282.713 216.968 282.713 217.344C282.713 218.448 282.001 219 280.577 219H277.469V212.952H280.469C281.077 212.952 281.545 213.088 281.873 213.36C282.209 213.624 282.377 213.996 282.377 214.476C282.377 214.756 282.313 215 282.185 215.208C282.065 215.416 281.913 215.568 281.729 215.664ZM278.477 218.136H280.517C281.301 218.136 281.693 217.836 281.693 217.236C281.693 216.628 281.301 216.324 280.517 216.324H278.477V218.136ZM278.477 213.816V215.46H280.373C280.717 215.46 280.965 215.384 281.117 215.232C281.277 215.08 281.357 214.884 281.357 214.644C281.357 214.092 281.029 213.816 280.373 213.816H278.477ZM288.153 219V218.364H287.889C287.473 218.892 286.845 219.156 286.005 219.156C285.341 219.156 284.813 218.964 284.421 218.58C284.029 218.196 283.833 217.732 283.833 217.188C283.833 216.636 284.025 216.164 284.409 215.772C284.793 215.38 285.373 215.184 286.149 215.184H288.117V214.944C288.117 214.56 287.997 214.256 287.757 214.032C287.517 213.8 287.145 213.684 286.641 213.684C285.761 213.684 285.293 213.976 285.237 214.56H284.217C284.257 214.008 284.493 213.576 284.925 213.264C285.365 212.952 285.929 212.796 286.617 212.796C287.393 212.796 288.001 212.976 288.441 213.336C288.889 213.696 289.113 214.212 289.113 214.884V219H288.153ZM286.257 218.268C286.761 218.268 287.197 218.104 287.565 217.776C287.933 217.44 288.117 217.032 288.117 216.552V216H286.305C285.337 216 284.853 216.384 284.853 217.152C284.853 217.496 284.973 217.768 285.213 217.968C285.461 218.168 285.809 218.268 286.257 218.268ZM293.885 213.684C293.253 213.684 292.777 213.904 292.457 214.344C292.145 214.784 291.989 215.328 291.989 215.976C291.989 216.624 292.145 217.168 292.457 217.608C292.777 218.048 293.253 218.268 293.885 218.268C294.477 218.268 294.933 218.06 295.253 217.644C295.581 217.22 295.745 216.664 295.745 215.976C295.745 215.288 295.581 214.736 295.253 214.32C294.933 213.896 294.477 213.684 293.885 213.684ZM290.981 212.952H291.965V213.6H292.229C292.661 213.064 293.289 212.796 294.113 212.796C294.929 212.796 295.573 213.096 296.045 213.696C296.525 214.296 296.765 215.056 296.765 215.976C296.765 216.912 296.525 217.676 296.045 218.268C295.573 218.86 294.929 219.156 294.113 219.156C293.281 219.156 292.665 218.888 292.265 218.352H292.001V221.4H290.981V212.952ZM297.622 213.84V212.952H302.83V213.84H300.742V219H299.722V213.84H297.622ZM308.028 219V218.364H307.764C307.348 218.892 306.72 219.156 305.88 219.156C305.216 219.156 304.688 218.964 304.296 218.58C303.904 218.196 303.708 217.732 303.708 217.188C303.708 216.636 303.9 216.164 304.284 215.772C304.668 215.38 305.248 215.184 306.024 215.184H307.992V214.944C307.992 214.56 307.872 214.256 307.632 214.032C307.392 213.8 307.02 213.684 306.516 213.684C305.636 213.684 305.168 213.976 305.112 214.56H304.092C304.132 214.008 304.368 213.576 304.8 213.264C305.24 212.952 305.804 212.796 306.492 212.796C307.268 212.796 307.876 212.976 308.316 213.336C308.764 213.696 308.988 214.212 308.988 214.884V219H308.028ZM306.132 218.268C306.636 218.268 307.072 218.104 307.44 217.776C307.808 217.44 307.992 217.032 307.992 216.552V216H306.18C305.212 216 304.728 216.384 304.728 217.152C304.728 217.496 304.848 217.768 305.088 217.968C305.336 218.168 305.684 218.268 306.132 218.268ZM310.172 219V218.04H310.376C310.8 218.04 311.104 217.844 311.288 217.452C311.472 217.052 311.564 216.332 311.564 215.292V212.952H316.196V219H315.164V213.84H312.512V215.316C312.512 216.684 312.344 217.64 312.008 218.184C311.68 218.728 311.136 219 310.376 219H310.172Z" fill="black"/>
<path d="M825.471 651.567H817.471C815.471 651.567 814.471 650.567 814.471 648.567V640.567C814.471 638.567 815.471 637.567 817.471 637.567H822.471V648.567C822.471 650.567 823.471 651.567 825.471 651.567Z" stroke="black" stroke-miterlimit="10" stroke-linecap="round" stroke-linejoin="round"/>
<path d="M822.581 633.567C822.501 633.867 822.471 634.197 822.471 634.567V637.567H817.471V635.567C817.471 634.467 818.371 633.567 819.471 633.567H822.581Z" stroke="black" stroke-miterlimit="10" stroke-linecap="round" stroke-linejoin="round"/>
<path d="M826.471 637.567V642.567" stroke="black" stroke-miterlimit="10" stroke-linecap="round" stroke-linejoin="round"/>
<path d="M830.471 637.567V642.567" stroke="black" stroke-miterlimit="10" stroke-linecap="round" stroke-linejoin="round"/>
<path d="M829.471 646.567H827.471C826.921 646.567 826.471 647.017 826.471 647.567V651.567H830.471V647.567C830.471 647.017 830.021 646.567 829.471 646.567Z" stroke="black" stroke-miterlimit="10" stroke-linecap="round" stroke-linejoin="round"/>
<path d="M818.471 642.567V646.567" stroke="black" stroke-miterlimit="10" stroke-linecap="round" stroke-linejoin="round"/>
<path d="M822.471 648.567V634.567C822.471 632.567 823.471 631.567 825.471 631.567H831.471C833.471 631.567 834.471 632.567 834.471 634.567V648.567C834.471 650.567 833.471 651.567 831.471 651.567H825.471C823.471 651.567 822.471 650.567 822.471 648.567Z" stroke="black" stroke-miterlimit="10" stroke-linecap="round" stroke-linejoin="round"/>
<path d="M792.429 663.131H793.569C793.385 663.923 793.001 664.555 792.417 665.027C791.833 665.491 791.085 665.723 790.173 665.723C788.925 665.723 787.953 665.311 787.257 664.487C786.561 663.663 786.213 662.595 786.213 661.283C786.213 659.971 786.565 658.903 787.269 658.079C787.973 657.255 788.945 656.843 790.185 656.843C791.049 656.843 791.769 657.059 792.345 657.491C792.921 657.915 793.297 658.499 793.473 659.243H792.333C791.997 658.299 791.281 657.827 790.185 657.827C789.241 657.827 788.525 658.159 788.037 658.823C787.549 659.487 787.305 660.307 787.305 661.283C787.305 662.267 787.545 663.091 788.025 663.755C788.513 664.411 789.229 664.739 790.173 664.739C790.765 664.739 791.253 664.599 791.637 664.319C792.021 664.031 792.285 663.635 792.429 663.131ZM794.527 660.407V659.519H799.735V660.407H797.647V665.567H796.627V660.407H794.527ZM803.984 660.251C803.352 660.251 802.876 660.471 802.556 660.911C802.244 661.351 802.088 661.895 802.088 662.543C802.088 663.191 802.244 663.735 802.556 664.175C802.876 664.615 803.352 664.835 803.984 664.835C804.576 664.835 805.032 664.627 805.352 664.211C805.68 663.787 805.844 663.231 805.844 662.543C805.844 661.855 805.68 661.303 805.352 660.887C805.032 660.463 804.576 660.251 803.984 660.251ZM801.08 659.519H802.064V660.167H802.328C802.76 659.631 803.388 659.363 804.212 659.363C805.028 659.363 805.672 659.663 806.144 660.263C806.624 660.863 806.864 661.623 806.864 662.543C806.864 663.479 806.624 664.243 806.144 664.835C805.672 665.427 805.028 665.723 804.212 665.723C803.38 665.723 802.764 665.455 802.364 664.919H802.1V667.967H801.08V659.519ZM808.883 660.263C809.419 659.663 810.147 659.363 811.067 659.363C811.987 659.363 812.711 659.663 813.239 660.263C813.775 660.863 814.043 661.623 814.043 662.543C814.043 663.463 813.775 664.223 813.239 664.823C812.711 665.423 811.987 665.723 811.067 665.723C810.147 665.723 809.419 665.423 808.883 664.823C808.355 664.223 808.091 663.463 808.091 662.543C808.091 661.623 808.355 660.863 808.883 660.263ZM809.615 664.175C809.951 664.615 810.435 664.835 811.067 664.835C811.699 664.835 812.183 664.615 812.519 664.175C812.855 663.727 813.023 663.183 813.023 662.543C813.023 661.903 812.855 661.363 812.519 660.923C812.183 660.475 811.699 660.251 811.067 660.251C810.435 660.251 809.951 660.475 809.615 660.923C809.279 661.363 809.111 661.903 809.111 662.543C809.111 663.183 809.279 663.727 809.615 664.175ZM817.591 659.519H820.603V665.567H819.571V663.179H817.735C817.575 663.179 817.451 663.175 817.363 663.167L816.451 665.567H815.383L816.403 662.939C815.779 662.643 815.467 662.115 815.467 661.355C815.467 660.771 815.647 660.319 816.007 659.999C816.375 659.679 816.903 659.519 817.591 659.519ZM819.571 660.383H817.699C817.259 660.383 816.947 660.467 816.763 660.635C816.579 660.803 816.487 661.047 816.487 661.367C816.487 661.679 816.579 661.915 816.763 662.075C816.947 662.235 817.259 662.315 817.699 662.315H819.571V660.383ZM829.305 659.519H830.301V664.679H831.417V667.283H830.421V665.567H822.561V659.519H823.557V664.679H825.933V659.519H826.929V664.679H829.305V659.519ZM834.173 665.567H832.733V659.519H833.729V664.199H833.993L836.645 659.519H838.133V665.567H837.137V660.887H836.873L834.173 665.567ZM841.544 665.567H840.104V659.519H841.1V664.199H841.364L844.016 659.519H845.504V665.567H844.508V660.887H844.244L841.544 665.567ZM843.824 656.879H844.652C844.636 657.439 844.464 657.871 844.136 658.175C843.808 658.479 843.356 658.631 842.78 658.631C842.212 658.631 841.764 658.479 841.436 658.175C841.108 657.871 840.936 657.439 840.92 656.879H841.748C841.764 657.559 842.108 657.899 842.78 657.899C843.436 657.899 843.784 657.559 843.824 656.879ZM851.567 663.743H852.587C852.467 664.351 852.183 664.835 851.735 665.195C851.295 665.547 850.731 665.723 850.043 665.723C849.131 665.723 848.411 665.427 847.883 664.835C847.363 664.235 847.103 663.471 847.103 662.543C847.103 661.607 847.363 660.843 847.883 660.251C848.403 659.659 849.123 659.363 850.043 659.363C850.739 659.363 851.303 659.539 851.735 659.891C852.175 660.235 852.447 660.695 852.551 661.271H851.531C851.315 660.591 850.819 660.251 850.043 660.251C849.395 660.251 848.911 660.467 848.591 660.899C848.279 661.323 848.123 661.863 848.123 662.519C848.123 663.183 848.283 663.735 848.603 664.175C848.923 664.615 849.403 664.835 850.043 664.835C850.891 664.835 851.399 664.471 851.567 663.743ZM856.064 659.519H859.076V665.567H858.044V663.179H856.208C856.048 663.179 855.924 663.175 855.836 663.167L854.924 665.567H853.856L854.876 662.939C854.252 662.643 853.94 662.115 853.94 661.355C853.94 660.771 854.12 660.319 854.48 659.999C854.848 659.679 855.376 659.519 856.064 659.519ZM858.044 660.383H856.172C855.732 660.383 855.42 660.467 855.236 660.635C855.052 660.803 854.96 661.047 854.96 661.367C854.96 661.679 855.052 661.915 855.236 662.075C855.42 662.235 855.732 662.315 856.172 662.315H858.044V660.383ZM805.93 680.567L804.586 677.903H802.774V680.567H801.754V674.519H802.774V677.015H804.61L805.87 674.519H806.938L805.462 677.435L807.022 680.567H805.93ZM812.729 677.231V677.495C813.025 677.567 813.261 677.727 813.437 677.975C813.621 678.223 813.713 678.535 813.713 678.911C813.713 680.015 813.001 680.567 811.577 680.567H808.469V674.519H811.469C812.077 674.519 812.545 674.655 812.873 674.927C813.209 675.191 813.377 675.563 813.377 676.043C813.377 676.323 813.313 676.567 813.185 676.775C813.065 676.983 812.913 677.135 812.729 677.231ZM809.477 679.703H811.517C812.301 679.703 812.693 679.403 812.693 678.803C812.693 678.195 812.301 677.891 811.517 677.891H809.477V679.703ZM809.477 675.383V677.027H811.373C811.717 677.027 811.965 676.951 812.117 676.799C812.277 676.647 812.357 676.451 812.357 676.211C812.357 675.659 812.029 675.383 811.373 675.383H809.477ZM819.153 680.567V679.931H818.889C818.473 680.459 817.845 680.723 817.005 680.723C816.341 680.723 815.813 680.531 815.421 680.147C815.029 679.763 814.833 679.299 814.833 678.755C814.833 678.203 815.025 677.731 815.409 677.339C815.793 676.947 816.373 676.751 817.149 676.751H819.117V676.511C819.117 676.127 818.997 675.823 818.757 675.599C818.517 675.367 818.145 675.251 817.641 675.251C816.761 675.251 816.293 675.543 816.237 676.127H815.217C815.257 675.575 815.493 675.143 815.925 674.831C816.365 674.519 816.929 674.363 817.617 674.363C818.393 674.363 819.001 674.543 819.441 674.903C819.889 675.263 820.113 675.779 820.113 676.451V680.567H819.153ZM817.257 679.835C817.761 679.835 818.197 679.671 818.565 679.343C818.933 679.007 819.117 678.599 819.117 678.119V677.567H817.305C816.337 677.567 815.853 677.951 815.853 678.719C815.853 679.063 815.973 679.335 816.213 679.535C816.461 679.735 816.809 679.835 817.257 679.835ZM824.885 675.251C824.253 675.251 823.777 675.471 823.457 675.911C823.145 676.351 822.989 676.895 822.989 677.543C822.989 678.191 823.145 678.735 823.457 679.175C823.777 679.615 824.253 679.835 824.885 679.835C825.477 679.835 825.933 679.627 826.253 679.211C826.581 678.787 826.745 678.231 826.745 677.543C826.745 676.855 826.581 676.303 826.253 675.887C825.933 675.463 825.477 675.251 824.885 675.251ZM821.981 674.519H822.965V675.167H823.229C823.661 674.631 824.289 674.363 825.113 674.363C825.929 674.363 826.573 674.663 827.045 675.263C827.525 675.863 827.765 676.623 827.765 677.543C827.765 678.479 827.525 679.243 827.045 679.835C826.573 680.427 825.929 680.723 825.113 680.723C824.281 680.723 823.665 680.455 823.265 679.919H823.001V682.967H821.981V674.519ZM828.622 675.407V674.519H833.83V675.407H831.742V680.567H830.722V675.407H828.622ZM839.028 680.567V679.931H838.764C838.348 680.459 837.72 680.723 836.88 680.723C836.216 680.723 835.688 680.531 835.296 680.147C834.904 679.763 834.708 679.299 834.708 678.755C834.708 678.203 834.9 677.731 835.284 677.339C835.668 676.947 836.248 676.751 837.024 676.751H838.992V676.511C838.992 676.127 838.872 675.823 838.632 675.599C838.392 675.367 838.02 675.251 837.516 675.251C836.636 675.251 836.168 675.543 836.112 676.127H835.092C835.132 675.575 835.368 675.143 835.8 674.831C836.24 674.519 836.804 674.363 837.492 674.363C838.268 674.363 838.876 674.543 839.316 674.903C839.764 675.263 839.988 675.779 839.988 676.451V680.567H839.028ZM837.132 679.835C837.636 679.835 838.072 679.671 838.44 679.343C838.808 679.007 838.992 678.599 838.992 678.119V677.567H837.18C836.212 677.567 835.728 677.951 835.728 678.719C835.728 679.063 835.848 679.335 836.088 679.535C836.336 679.735 836.684 679.835 837.132 679.835ZM841.172 680.567V679.607H841.376C841.8 679.607 842.104 679.411 842.288 679.019C842.472 678.619 842.564 677.899 842.564 676.859V674.519H847.196V680.567H846.164V675.407H843.512V676.883C843.512 678.251 843.344 679.207 843.008 679.751C842.68 680.295 842.136 680.567 841.376 680.567H841.172Z" fill="black"/>
<path d="M949.183 737.541L841.453 806.633C840.086 807.51 838.269 807.14 837.355 805.797L684.405 581.379C683.414 579.924 683.883 577.932 685.419 577.072L717.977 558.851C718.891 558.34 719.472 557.389 719.51 556.343L720.643 525.336C720.71 523.514 722.373 522.172 724.168 522.492L886.734 551.462C888.399 551.758 889.49 553.373 889.144 555.028L877.962 608.562C877.609 610.252 878.753 611.891 880.461 612.143L967.143 624.923C968.818 625.169 969.957 626.752 969.659 628.418L950.517 735.544C950.37 736.366 949.886 737.09 949.183 737.541Z" stroke="black" stroke-width="2"/>
<path d="M1329.47 656H1321.47C1319.47 656 1318.47 655 1318.47 653V645C1318.47 643 1319.47 642 1321.47 642H1326.47V653C1326.47 655 1327.47 656 1329.47 656Z" stroke="black" stroke-miterlimit="10" stroke-linecap="round" stroke-linejoin="round"/>
<path d="M1326.58 638C1326.5 638.3 1326.47 638.63 1326.47 639V642H1321.47V640C1321.47 638.9 1322.37 638 1323.47 638H1326.58Z" stroke="black" stroke-miterlimit="10" stroke-linecap="round" stroke-linejoin="round"/>
<path d="M1330.47 642V647" stroke="black" stroke-miterlimit="10" stroke-linecap="round" stroke-linejoin="round"/>
<path d="M1334.47 642V647" stroke="black" stroke-miterlimit="10" stroke-linecap="round" stroke-linejoin="round"/>
<path d="M1333.47 651H1331.47C1330.92 651 1330.47 651.45 1330.47 652V656H1334.47V652C1334.47 651.45 1334.02 651 1333.47 651Z" stroke="black" stroke-miterlimit="10" stroke-linecap="round" stroke-linejoin="round"/>
<path d="M1322.47 647V651" stroke="black" stroke-miterlimit="10" stroke-linecap="round" stroke-linejoin="round"/>
<path d="M1326.47 653V639C1326.47 637 1327.47 636 1329.47 636H1335.47C1337.47 636 1338.47 637 1338.47 639V653C1338.47 655 1337.47 656 1335.47 656H1329.47C1327.47 656 1326.47 655 1326.47 653Z" stroke="black" stroke-miterlimit="10" stroke-linecap="round" stroke-linejoin="round"/>
<path d="M1307.53 666.136H1305.31V670H1304.25V666.136H1302.01L1300.43 670H1299.29L1301.09 665.656L1299.4 661.432H1300.54L1302.01 665.152H1304.25V661.432H1305.31V665.152H1307.53L1309.02 661.432H1310.16L1308.46 665.656L1310.27 670H1309.13L1307.53 666.136ZM1312.03 670V661.432H1313.11V665.092H1315.7L1317.41 661.432H1318.55L1316.63 665.596L1318.66 670H1317.52L1315.7 666.076H1313.11V670H1312.03ZM1329.44 661.432H1330.5V670H1328.79L1324.81 662.836H1324.54V670H1323.49V661.432H1325.19L1329.18 668.596H1329.44V661.432ZM1336.24 661.276C1337.5 661.276 1338.48 661.696 1339.18 662.536C1339.88 663.376 1340.24 664.436 1340.24 665.716C1340.24 666.996 1339.88 668.056 1339.18 668.896C1338.48 669.736 1337.5 670.156 1336.24 670.156C1334.98 670.156 1333.99 669.74 1333.29 668.908C1332.59 668.068 1332.24 667.004 1332.24 665.716C1332.24 664.428 1332.59 663.368 1333.29 662.536C1333.99 661.696 1334.98 661.276 1336.24 661.276ZM1334.07 668.176C1334.56 668.84 1335.28 669.172 1336.24 669.172C1337.2 669.172 1337.92 668.84 1338.41 668.176C1338.9 667.512 1339.14 666.692 1339.14 665.716C1339.14 664.74 1338.9 663.92 1338.41 663.256C1337.92 662.592 1337.2 662.26 1336.24 662.26C1335.28 662.26 1334.56 662.592 1334.07 663.256C1333.58 663.92 1333.34 664.74 1333.34 665.716C1333.34 666.692 1333.58 667.512 1334.07 668.176ZM1341.99 661.432H1345.78C1346.69 661.432 1347.38 661.652 1347.87 662.092C1348.36 662.524 1348.6 663.136 1348.6 663.928C1348.6 665.008 1348.17 665.74 1347.3 666.124L1348.66 670H1347.55L1346.26 666.376C1346.04 666.4 1345.81 666.412 1345.57 666.412H1343.07V670H1341.99V661.432ZM1343.07 665.452H1345.63C1346.88 665.452 1347.51 664.944 1347.51 663.928C1347.51 663.424 1347.36 663.044 1347.07 662.788C1346.77 662.524 1346.29 662.392 1345.63 662.392H1343.07V665.452ZM1350.5 661.432H1353.7C1354.99 661.432 1355.97 661.816 1356.64 662.584C1357.32 663.352 1357.66 664.396 1357.66 665.716C1357.66 667.036 1357.32 668.08 1356.64 668.848C1355.96 669.616 1354.98 670 1353.7 670H1350.5V661.432ZM1351.58 669.016H1353.7C1354.68 669.016 1355.4 668.712 1355.86 668.104C1356.34 667.488 1356.57 666.692 1356.57 665.716C1356.57 664.74 1356.34 663.948 1355.86 663.34C1355.4 662.724 1354.68 662.416 1353.7 662.416H1351.58V669.016Z" fill="black"/>
<path d="M396.285 297.331L461.241 194.415C461.967 193.265 461.829 191.772 460.906 190.775L442.183 170.55C441.981 170.331 441.747 170.144 441.489 169.994L311.572 94.4953C311.114 94.2293 310.594 94.0892 310.064 94.0892H282.589C282.099 94.0892 281.617 93.9694 281.185 93.7403L236.679 70.1692C235.4 69.4918 233.819 69.8242 232.922 70.9594L174.134 145.294C174.026 145.431 173.929 145.577 173.846 145.732L116.981 251.27C115.999 253.092 117.113 255.336 119.157 255.657L393.283 298.694C394.466 298.88 395.646 298.344 396.285 297.331Z" stroke="black" stroke-width="2"/>
<path d="M1370.53 839L1224.24 806.287C1222.69 805.939 1221.67 804.435 1221.94 802.863L1274.83 487.727C1275.11 486.072 1276.69 484.966 1278.34 485.275L1370.53 502.5" stroke="black" stroke-width="2"/>
</svg>
