<svg width="122" height="28" viewBox="0 0 122 28" fill="none" xmlns="http://www.w3.org/2000/svg">
<path d="M44.8616 25.349H57.4121V20.5253H60.644C67.0329 20.5253 70.165 17.0545 70.165 11.3557C70.165 5.69855 66.9229 2.2998 60.644 2.2998H44.8616V25.349Z" stroke="white" stroke-width="2" stroke-miterlimit="22.93"/>
<path d="M1.57422 25.3492H14.1201V12.7762H22.7149V2.30371H1.57422V25.3492Z" stroke="white" stroke-width="2" stroke-miterlimit="22.93"/>
<path d="M96.4412 2.31006H115.509V14.8765H120.403L118.689 25.3491H89.6328V14.8765H94.3846L96.4412 2.31006Z" stroke="white" stroke-width="2" stroke-miterlimit="22.93"/>
<path d="M33.8401 26.0709C41.664 26.0709 48.0065 20.5887 48.0065 13.826C48.0065 7.06329 41.664 1.58105 33.8401 1.58105C26.0161 1.58105 19.6736 7.06329 19.6736 13.826C19.6736 20.5887 26.0161 26.0709 33.8401 26.0709Z" stroke="white" stroke-width="2" stroke-miterlimit="22.93"/>
<path d="M80.218 26.0709C88.0419 26.0709 94.3845 20.5887 94.3845 13.826C94.3845 7.06329 88.0419 1.58105 80.218 1.58105C72.3941 1.58105 66.0515 7.06329 66.0515 13.826C66.0515 20.5887 72.3941 26.0709 80.218 26.0709Z" stroke="white" stroke-width="2" stroke-miterlimit="22.93"/>
</svg>
