<svg width="23" height="23" viewBox="0 0 23 23" fill="none" xmlns="http://www.w3.org/2000/svg">
<path d="M21.9696 18.2736C21.9696 18.6392 21.8884 19.0148 21.7158 19.3804C21.5432 19.7459 21.3198 20.0912 21.0253 20.4161C20.5278 20.9644 19.9795 21.3604 19.3601 21.6142C18.7508 21.8681 18.0908 22.0001 17.3801 22.0001C16.3444 22.0001 15.2376 21.7564 14.0699 21.2588C12.9022 20.7613 11.7345 20.0912 10.577 19.2484C9.40931 18.3955 8.30254 17.4512 7.24654 16.4053C6.20069 15.3493 5.25638 14.2425 4.41361 13.085C3.581 11.9275 2.91084 10.7699 2.42346 9.62254C1.93608 8.465 1.69238 7.35823 1.69238 6.30223C1.69238 5.61177 1.81423 4.95177 2.05792 4.34254C2.30161 3.72315 2.68746 3.15454 3.22561 2.64684C3.87546 2.00715 4.58623 1.69238 5.33761 1.69238C5.62192 1.69238 5.90623 1.75331 6.16008 1.87515C6.42408 1.997 6.65761 2.17977 6.84038 2.44377L9.19608 5.76408C9.37885 6.01792 9.51084 6.25146 9.60223 6.47484C9.69361 6.68808 9.74438 6.90131 9.74438 7.09423C9.74438 7.33792 9.67331 7.58161 9.53115 7.81515C9.39915 8.04869 9.20623 8.29238 8.96254 8.53608L8.19084 9.33823C8.07915 9.44992 8.02838 9.58192 8.02838 9.74438C8.02838 9.82561 8.03854 9.89669 8.05885 9.97792C8.08931 10.0592 8.11977 10.1201 8.14008 10.181C8.32285 10.5161 8.63761 10.9527 9.08438 11.4807C9.54131 12.0087 10.0287 12.5468 10.5567 13.085C11.105 13.6232 11.633 14.1207 12.1712 14.5776C12.6992 15.0244 13.1358 15.329 13.481 15.5118C13.5318 15.5321 13.5927 15.5625 13.6638 15.593C13.745 15.6235 13.8262 15.6336 13.9176 15.6336C14.0902 15.6336 14.2222 15.5727 14.3339 15.461L15.1056 14.6995C15.3595 14.4456 15.6032 14.2527 15.8367 14.1308C16.0702 13.9887 16.3038 13.9176 16.5576 13.9176C16.7505 13.9176 16.9536 13.9582 17.177 14.0496C17.4004 14.141 17.6339 14.273 17.8878 14.4456L21.2487 16.8318C21.5127 17.0145 21.6955 17.2278 21.8072 17.4816C21.9087 17.7355 21.9696 17.9893 21.9696 18.2736Z" stroke="white" stroke-width="1.5" stroke-miterlimit="10"/>
</svg>
