<svg width="21" height="22" viewBox="0 0 21 22" fill="none" xmlns="http://www.w3.org/2000/svg">
<path d="M6.12492 0.583496H14.8749C18.2083 0.583496 20.9166 3.29183 20.9166 6.62516V15.3752C20.9166 16.9775 20.2801 18.5142 19.147 19.6473C18.014 20.7803 16.4773 21.4168 14.8749 21.4168H6.12492C2.79159 21.4168 0.083252 18.7085 0.083252 15.3752V6.62516C0.083252 5.02281 0.719783 3.48609 1.85282 2.35306C2.98585 1.22003 4.52257 0.583496 6.12492 0.583496ZM5.91658 2.66683C4.92202 2.66683 3.9682 3.06192 3.26493 3.76518C2.56167 4.46844 2.16659 5.42227 2.16659 6.41683V15.5835C2.16659 17.6564 3.84367 19.3335 5.91658 19.3335H15.0833C16.0778 19.3335 17.0316 18.9384 17.7349 18.2351C18.4382 17.5319 18.8333 16.5781 18.8333 15.5835V6.41683C18.8333 4.34391 17.1562 2.66683 15.0833 2.66683H5.91658ZM15.9687 4.22933C16.314 4.22933 16.6452 4.36651 16.8894 4.6107C17.1336 4.85489 17.2708 5.18608 17.2708 5.53141C17.2708 5.87675 17.1336 6.20794 16.8894 6.45212C16.6452 6.69631 16.314 6.8335 15.9687 6.8335C15.6233 6.8335 15.2921 6.69631 15.048 6.45212C14.8038 6.20794 14.6666 5.87675 14.6666 5.53141C14.6666 5.18608 14.8038 4.85489 15.048 4.6107C15.2921 4.36651 15.6233 4.22933 15.9687 4.22933ZM10.4999 5.79183C11.8813 5.79183 13.206 6.34056 14.1828 7.31731C15.1595 8.29407 15.7083 9.61883 15.7083 11.0002C15.7083 12.3815 15.1595 13.7063 14.1828 14.683C13.206 15.6598 11.8813 16.2085 10.4999 16.2085C9.11858 16.2085 7.79382 15.6598 6.81707 14.683C5.84032 13.7063 5.29159 12.3815 5.29159 11.0002C5.29159 9.61883 5.84032 8.29407 6.81707 7.31731C7.79382 6.34056 9.11858 5.79183 10.4999 5.79183ZM10.4999 7.87516C9.67112 7.87516 8.87626 8.2044 8.29021 8.79045C7.70416 9.3765 7.37492 10.1714 7.37492 11.0002C7.37492 11.829 7.70416 12.6238 8.29021 13.2099C8.87626 13.7959 9.67112 14.1252 10.4999 14.1252C11.3287 14.1252 12.1236 13.7959 12.7096 13.2099C13.2957 12.6238 13.6249 11.829 13.6249 11.0002C13.6249 10.1714 13.2957 9.3765 12.7096 8.79045C12.1236 8.2044 11.3287 7.87516 10.4999 7.87516Z" fill="black"/>
</svg>
