<svg width="183" height="39" viewBox="0 0 183 39" fill="none" xmlns="http://www.w3.org/2000/svg">
<path d="M62.7529 34.6142H80.4047V27.9675H84.9504C93.9361 27.9675 98.3413 23.185 98.3413 15.3325C98.3413 7.53724 93.7815 2.854 84.9504 2.854H62.7529V34.6142Z" stroke="black" stroke-width="2" stroke-miterlimit="22.93"/>
<path d="M1.87085 34.6145H19.5162V17.2898H31.6045V2.85938H1.87085V34.6145Z" stroke="black" stroke-width="2" stroke-miterlimit="22.93"/>
<path d="M135.298 2.86768H162.116V20.1834H169L166.589 34.6139H125.722V20.1834H132.405L135.298 2.86768Z" stroke="black" stroke-width="2" stroke-miterlimit="22.93"/>
<path d="M47.2515 35.6086C58.2556 35.6086 67.1762 28.0544 67.1762 18.7359C67.1762 9.41743 58.2556 1.86328 47.2515 1.86328C36.2475 1.86328 27.3269 9.41743 27.3269 18.7359C27.3269 28.0544 36.2475 35.6086 47.2515 35.6086Z" stroke="black" stroke-width="2" stroke-miterlimit="22.93"/>
<path d="M112.481 35.6086C123.485 35.6086 132.405 28.0544 132.405 18.7359C132.405 9.41743 123.485 1.86328 112.481 1.86328C101.477 1.86328 92.5562 9.41743 92.5562 18.7359C92.5562 28.0544 101.477 35.6086 112.481 35.6086Z" stroke="black" stroke-width="2" stroke-miterlimit="22.93"/>
</svg>
