<svg width="277" height="59" viewBox="0 0 277 59" fill="none" xmlns="http://www.w3.org/2000/svg">
<path d="M101.516 55.2711H130.277V44.5198H137.684C152.325 44.5198 159.503 36.7839 159.503 24.0822C159.503 11.4732 152.073 3.89795 137.684 3.89795H101.516V55.2711Z" stroke="white" stroke-width="3" stroke-miterlimit="22.93"/>
<path d="M2.31567 55.2711H31.0667V27.2479H50.7631V3.90625H2.31567V55.2711Z" stroke="white" stroke-width="3" stroke-miterlimit="22.93"/>
<path d="M219.719 3.92041H263.416V31.9292H274.633L270.705 55.2709H204.117V31.9292H215.006L219.719 3.92041Z" stroke="white" stroke-width="3" stroke-miterlimit="22.93"/>
<path d="M76.258 56.8795C94.1879 56.8795 108.723 44.6604 108.723 29.5874C108.723 14.5145 94.1879 2.29541 76.258 2.29541C58.3282 2.29541 43.7932 14.5145 43.7932 29.5874C43.7932 44.6604 58.3282 56.8795 76.258 56.8795Z" stroke="white" stroke-width="3" stroke-miterlimit="22.93"/>
<path d="M182.541 56.8795C200.471 56.8795 215.006 44.6604 215.006 29.5874C215.006 14.5145 200.471 2.29541 182.541 2.29541C164.611 2.29541 150.076 14.5145 150.076 29.5874C150.076 44.6604 164.611 56.8795 182.541 56.8795Z" stroke="white" stroke-width="3" stroke-miterlimit="22.93"/>
</svg>
