<svg width="24" height="12" viewBox="0 0 24 12" fill="none" xmlns="http://www.w3.org/2000/svg">
<path d="M23.9663 0.866678C24.1579 1.33391 23.5331 2.40709 22.092 4.08622C21.892 4.31983 21.6213 4.63011 21.2798 5.01703C20.9465 5.38936 20.7175 5.65218 20.5925 5.80549C20.4675 5.9588 20.3405 6.13949 20.2114 6.34756C20.0823 6.55562 20.0323 6.70893 20.0614 6.80749C20.0906 6.90605 20.1447 7.03198 20.2239 7.1853C20.303 7.33861 20.4384 7.49557 20.63 7.65618C20.8216 7.81679 21.059 8.01026 21.3422 8.23657C21.3756 8.25117 21.3964 8.26578 21.4047 8.28038C22.5793 9.23675 23.3748 10.0435 23.7913 10.7005C23.8163 10.737 23.8434 10.7826 23.8726 10.8374C23.9017 10.8921 23.9309 10.9889 23.96 11.1276C23.9892 11.2663 23.9871 11.3904 23.9538 11.4999C23.9205 11.6094 23.8163 11.7098 23.6414 11.8011C23.4665 11.8923 23.2207 11.9379 22.9042 11.9379L19.7053 11.9817C19.5054 12.0183 19.2722 12 19.0056 11.927C18.739 11.854 18.5224 11.7737 18.3558 11.6861L18.1059 11.5547C17.856 11.4014 17.5644 11.1677 17.2312 10.8538C16.898 10.5399 16.6127 10.257 16.3753 10.0051C16.1379 9.75326 15.8838 9.54154 15.6131 9.36998C15.3423 9.19842 15.107 9.14184 14.9071 9.20024C14.8821 9.20754 14.8488 9.22032 14.8071 9.23857C14.7655 9.25682 14.6947 9.30975 14.5947 9.39736C14.4947 9.48497 14.4052 9.59265 14.326 9.72041C14.2469 9.84817 14.1761 10.038 14.1136 10.2898C14.0511 10.5417 14.0241 10.8246 14.0324 11.1385C14.0324 11.248 14.0178 11.3484 13.9887 11.4397C13.9595 11.5309 13.9283 11.5985 13.8949 11.6423L13.845 11.697C13.695 11.8357 13.4743 11.916 13.1827 11.9379H11.7457C11.1543 11.9671 10.5462 11.9069 9.92139 11.7573C9.29662 11.6076 8.7489 11.4141 8.27824 11.1769C7.80757 10.9396 7.37856 10.6987 6.9912 10.4541C6.60385 10.2095 6.3102 9.99965 6.11028 9.82444L5.79789 9.56162C5.71459 9.48862 5.60004 9.37911 5.45426 9.2331C5.30848 9.08709 5.01068 8.75491 4.56084 8.23657C4.111 7.71823 3.6695 7.16704 3.23632 6.583C2.80315 5.99896 2.29292 5.22875 1.70563 4.27238C1.11834 3.31601 0.574791 2.32314 0.0749727 1.29376C0.0249909 1.17695 0 1.07839 0 0.998088C0 0.917782 0.0124955 0.859378 0.0374864 0.822875L0.0874682 0.75717C0.212423 0.61846 0.449836 0.549105 0.799709 0.549105L4.22346 0.527203C4.32343 0.541804 4.41922 0.565531 4.51086 0.598383C4.60249 0.631236 4.66913 0.662263 4.71078 0.691465L4.77326 0.724318C4.90655 0.804624 5.00651 0.921432 5.07315 1.07474C5.23976 1.43977 5.43136 1.81757 5.64794 2.20815C5.86453 2.59873 6.0353 2.89623 6.16026 3.10064L6.36018 3.41822C6.60176 3.85625 6.83501 4.23588 7.05993 4.5571C7.28485 4.87832 7.48686 5.12837 7.66596 5.30723C7.84506 5.48609 8.01791 5.62663 8.18452 5.72884C8.35113 5.83105 8.49274 5.88215 8.60937 5.88215C8.72599 5.88215 8.83845 5.8639 8.94674 5.8274C8.9634 5.82009 8.98423 5.80184 9.00922 5.77264C9.03421 5.74344 9.08419 5.66313 9.15917 5.53172C9.23414 5.40031 9.29037 5.22875 9.32785 5.01703C9.36534 4.80532 9.40491 4.50965 9.44656 4.13002C9.48821 3.75039 9.48821 3.29411 9.44656 2.76117C9.4299 2.46915 9.39241 2.20268 9.3341 1.96176C9.27579 1.72084 9.21748 1.55293 9.15917 1.45802L9.08419 1.32661C8.87593 1.07839 8.5219 0.921432 8.02208 0.855728C7.91379 0.841126 7.93461 0.75352 8.08456 0.592908C8.21784 0.454198 8.37612 0.34469 8.55938 0.264384C9.00089 0.0745698 9.99636 -0.0130367 11.5458 0.0015644C12.2289 0.00886494 12.7912 0.0563185 13.2327 0.143925C13.3993 0.180428 13.5388 0.229706 13.6513 0.291761C13.7637 0.353815 13.8491 0.441422 13.9074 0.55458C13.9657 0.667739 14.0095 0.784547 14.0386 0.905006C14.0678 1.02547 14.0824 1.19155 14.0824 1.40327C14.0824 1.61498 14.0782 1.81575 14.0699 2.00556C14.0615 2.19538 14.0511 2.45272 14.0386 2.77759C14.0261 3.10247 14.0199 3.40362 14.0199 3.68104C14.0199 3.76134 14.0157 3.91465 14.0074 4.14097C13.9991 4.36729 13.997 4.5425 14.0012 4.66661C14.0053 4.79072 14.0199 4.93855 14.0449 5.11012C14.0699 5.28168 14.1178 5.42404 14.1886 5.5372C14.2594 5.65036 14.3531 5.73979 14.4697 5.80549C14.5364 5.82009 14.6072 5.8347 14.6822 5.8493C14.7571 5.8639 14.8654 5.82374 15.007 5.72884C15.1487 5.63393 15.3069 5.508 15.4819 5.35103C15.6568 5.19407 15.8734 4.9495 16.1316 4.61733C16.3899 4.28516 16.6731 3.89275 16.9813 3.44012C17.4811 2.68086 17.9268 1.85955 18.3183 0.976186C18.3517 0.903181 18.3933 0.839301 18.4433 0.784547C18.4933 0.729793 18.5391 0.691465 18.5807 0.669564L18.6307 0.636711L18.6932 0.609334L18.8556 0.576482L19.1055 0.571006L22.7042 0.549105C23.0291 0.512602 23.2957 0.521728 23.5039 0.576482C23.7122 0.631236 23.8413 0.691465 23.8913 0.75717L23.9663 0.866678Z" fill="black"/>
</svg>
