<svg width="511" height="108" viewBox="0 0 511 108" fill="none" xmlns="http://www.w3.org/2000/svg">
<path d="M186.68 101.925H239.81V81.9316H253.492C280.538 81.9316 293.798 67.5455 293.798 43.9248C293.798 20.4765 280.073 6.38916 253.492 6.38916H186.68V101.925Z" stroke="white" stroke-width="6" stroke-miterlimit="22.93"/>
<path d="M3.43066 101.925H56.5416V49.8116H92.9262V6.4043H3.43066V101.925Z" stroke="white" stroke-width="6" stroke-miterlimit="22.93"/>
<path d="M405.034 6.43115H485.754V58.5177H506.474L499.218 101.925H376.212V58.5177H396.328L405.034 6.43115Z" stroke="white" stroke-width="6" stroke-miterlimit="22.93"/>
<path d="M140.022 104.916C173.143 104.916 199.994 82.1932 199.994 54.1628C199.994 26.1323 173.143 3.40918 140.022 3.40918C106.901 3.40918 80.0508 26.1323 80.0508 54.1628C80.0508 82.1932 106.901 104.916 140.022 104.916Z" stroke="white" stroke-width="6" stroke-miterlimit="22.93"/>
<path d="M336.356 104.916C369.478 104.916 396.328 82.1932 396.328 54.1628C396.328 26.1323 369.478 3.40918 336.356 3.40918C303.235 3.40918 276.385 26.1323 276.385 54.1628C276.385 82.1932 303.235 104.916 336.356 104.916Z" stroke="white" stroke-width="6" stroke-miterlimit="22.93"/>
</svg>
